<svg width="585" height="84" viewBox="0 0 585 84" fill="none" xmlns="http://www.w3.org/2000/svg">
<mask id="path-1-outside-1_14_179" maskUnits="userSpaceOnUse" x="-2" y="-2" width="589" height="88" fill="black">
<rect fill="white" x="-2" y="-2" width="589" height="88"/>
<path d="M104.44 -5.72205e-06C127.6 -5.72205e-06 146.44 18.96 146.44 42C146.44 65.16 127.6 84 104.44 84H42.4C19.24 84 0.4 65.16 0.4 42C0.4 18.96 19.24 -5.72205e-06 42.4 -5.72205e-06H104.44ZM104.44 62.16C115.48 62.16 124.48 53.16 124.48 42C124.48 30.96 115.48 21.96 104.44 21.96H42.4C31.24 21.96 22.24 30.96 22.24 42C22.24 53.16 31.24 62.16 42.4 62.16H104.44ZM328.989 -5.72205e-06H350.949V84H328.989V51.24H263.229V84H241.389V-5.72205e-06H263.229V29.28H328.989V-5.72205e-06ZM445.828 -5.72205e-06L474.988 84H451.228L443.668 62.16H382.228L374.548 84H350.908L380.068 -5.72205e-06H445.828ZM389.788 40.2H435.988L429.628 21.96H396.148L389.788 40.2ZM509.861 21.96C498.701 21.96 489.701 30.96 489.701 42C489.701 53.16 498.701 62.16 509.861 62.16H584.621V84H509.861C486.701 84 467.861 65.16 467.861 42C467.861 18.96 486.701 -5.72205e-06 509.861 -5.72205e-06H584.621V21.96H509.861Z"/>
</mask>
<path d="M104.44 -1.00001H103.471V0.999994H104.44V-1.00001ZM101.532 -1.00001H99.5931V0.999994H101.532V-1.00001ZM97.6544 -1.00001H95.7156V0.999994H97.6544V-1.00001ZM93.7769 -1.00001H91.8381V0.999994H93.7769V-1.00001ZM89.8994 -1.00001H87.9606V0.999994H89.8994V-1.00001ZM86.0219 -1.00001H84.0831V0.999994H86.0219V-1.00001ZM82.1444 -1.00001H80.2056V0.999994H82.1444V-1.00001ZM78.2669 -1.00001H76.3281V0.999994H78.2669V-1.00001ZM74.3894 -1.00001H72.4506V0.999994H74.3894V-1.00001ZM70.5119 -1.00001H68.5731V0.999994H70.5119V-1.00001ZM66.6344 -1.00001H64.6956V0.999994H66.6344V-1.00001ZM62.7569 -1.00001H60.8181V0.999994H62.7569V-1.00001ZM58.8794 -1.00001H56.9406V0.999994H58.8794V-1.00001ZM55.0019 -1.00001H53.0631V0.999994H55.0019V-1.00001ZM51.1244 -1.00001H49.1856V0.999994H51.1244V-1.00001ZM47.2469 -1.00001H45.3081V0.999994H47.2469V-1.00001ZM43.3694 -1.00001H42.4V0.999994H43.3694V-1.00001ZM42.4 -1.00001C42.0465 -1.00001 41.6939 -0.99569 41.3424 -0.987108L41.3912 1.0123C41.7265 1.00411 42.0628 0.999994 42.4 0.999994V-1.00001ZM39.2358 -0.884092C38.5313 -0.832302 37.8314 -0.763366 37.1366 -0.677701L37.3813 1.30727C38.0436 1.22562 38.7108 1.1599 39.3825 1.11053L39.2358 -0.884092ZM35.0498 -0.367867C34.3544 -0.246938 33.6646 -0.10917 32.9808 0.0449956L33.4208 1.99601C34.0723 1.8491 34.7297 1.71781 35.3925 1.60257L35.0498 -0.367867ZM30.9348 0.560018C30.2553 0.749117 29.5825 0.954569 28.9169 1.17591L29.5479 3.07374C30.1823 2.86279 30.8235 2.667 31.471 2.4868L30.9348 0.560018ZM26.932 1.89102C26.275 2.14623 25.6259 2.41716 24.9849 2.70333L25.8003 4.52956C26.4113 4.25677 27.0301 3.99852 27.6562 3.75528L26.932 1.89102ZM23.0805 3.61056C22.4523 3.92897 21.833 4.26234 21.223 4.61019L22.2137 6.34759C22.7954 6.01589 23.3859 5.69803 23.9847 5.39445L23.0805 3.61056ZM19.4168 5.69948C18.8232 6.07755 18.2395 6.46973 17.6661 6.87553L18.8214 8.50808C19.3684 8.121 19.9251 7.74695 20.4912 7.38638L19.4168 5.69948ZM15.9747 8.13529C15.421 8.56902 14.8781 9.01595 14.3466 9.47559L15.6548 10.9884C16.1619 10.5499 16.6798 10.1235 17.208 9.70978L15.9747 8.13529ZM12.7853 10.8931C12.2764 11.3782 11.7793 11.8755 11.2945 12.3846L12.7429 13.7638C13.2054 13.2781 13.6797 12.8037 14.1652 12.3409L12.7853 10.8931ZM9.87765 13.9464C9.41819 14.4782 8.97148 15.0212 8.53801 15.575L10.1129 16.8077C10.5265 16.2794 10.9527 15.7613 11.391 15.254L9.87765 13.9464ZM7.27884 17.2667C6.87318 17.8403 6.48117 18.4241 6.10329 19.0177L7.79042 20.0918C8.15084 19.5256 8.52476 18.9687 8.91173 18.4216L7.27884 17.2667ZM5.01435 20.824C4.66655 21.4341 4.33325 22.0534 4.01491 22.6815L5.79882 23.5857C6.10236 22.9869 6.42019 22.3963 6.75187 21.8145L5.01435 20.824ZM3.10767 24.5858C2.82141 25.2268 2.55042 25.8759 2.29514 26.5327L4.15928 27.2572C4.40261 26.6312 4.66094 26.0124 4.93383 25.4014L3.10767 24.5858ZM1.57964 28.5173C1.35809 29.183 1.15245 29.8557 0.963175 30.5351L2.88979 31.0719C3.07017 30.4245 3.26615 29.7834 3.4773 29.1489L1.57964 28.5173ZM0.447459 32.5809C0.293017 33.2647 0.155002 33.9545 0.0338493 34.6497L2.00416 34.9931C2.11962 34.3305 2.25114 33.6731 2.39832 33.0215L0.447459 32.5809ZM-0.276705 36.7365C-0.362615 37.4315 -0.431747 38.1314 -0.483689 38.8358L1.5109 38.9828C1.56041 38.3114 1.62631 37.6442 1.70819 36.9818L-0.276705 36.7365ZM-0.587055 40.9425C-0.595669 41.294 -0.6 41.6465 -0.6 42H1.4C1.4 41.6629 1.40413 41.3267 1.41234 40.9914L-0.587055 40.9425ZM-0.6 42C-0.6 42.3536 -0.595709 42.7063 -0.587174 43.0579L1.41224 43.0094C1.40409 42.6739 1.4 42.3374 1.4 42H-0.6ZM-0.484717 45.165C-0.433201 45.8697 -0.364621 46.5699 -0.279387 47.2649L1.70574 47.0215C1.62448 46.3588 1.55909 45.6913 1.50996 45.0192L-0.484717 45.165ZM0.0289544 49.3525C0.149326 50.0483 0.286478 50.7385 0.439977 51.4225L2.39145 50.9846C2.24515 50.3327 2.11442 49.6749 1.99968 49.0116L0.0289544 49.3525ZM0.952907 53.4698C1.14129 54.1498 1.34598 54.8231 1.56655 55.4892L3.46517 54.8605C3.25495 54.2256 3.05985 53.5839 2.88032 52.9359L0.952907 53.4698ZM2.27935 57.4757C2.53381 58.1333 2.80399 58.783 3.08941 59.4246L4.91671 58.6116C4.64463 58 4.3871 57.3807 4.14456 56.7539L2.27935 57.4757ZM3.99452 61.331C4.31227 61.9598 4.64501 62.5798 4.99226 63.1905L6.73084 62.2019C6.39975 61.6196 6.08251 61.0285 5.77957 60.429L3.99452 61.331ZM6.07994 64.9987C6.45753 65.593 6.84929 66.1774 7.25473 66.7514L8.88837 65.5977C8.50169 65.0502 8.12809 64.4928 7.76801 63.9261L6.07994 64.9987ZM8.51363 68.4447C8.94714 68.999 9.39392 69.5424 9.85349 70.0745L11.3671 68.7671C10.9287 68.2596 10.5025 67.7413 10.0891 67.2126L8.51363 68.4447ZM11.271 71.6371C11.7561 72.1464 12.2536 72.6438 12.7629 73.129L14.1423 71.6808C13.6565 71.218 13.182 70.7435 12.7192 70.2577L11.271 71.6371ZM14.3255 74.5465C14.8576 75.0061 15.401 75.4529 15.9553 75.8864L17.1874 74.3109C16.6587 73.8975 16.1404 73.4713 15.6329 73.0329L14.3255 74.5465ZM17.6485 77.1453C18.2226 77.5507 18.807 77.9425 19.4013 78.3201L20.4739 76.632C19.9072 76.2719 19.3498 75.8983 18.8023 75.5116L17.6485 77.1453ZM21.2095 79.4077C21.8202 79.755 22.4402 80.0877 23.069 80.4055L23.971 78.6204C23.3715 78.3175 22.7804 78.0002 22.1981 77.6692L21.2095 79.4077ZM24.9754 81.3106C25.6169 81.596 26.2667 81.8662 26.9243 82.1206L27.6461 80.2554C27.0193 80.0129 26.4 79.7554 25.7884 79.4833L24.9754 81.3106ZM28.9108 82.8334C29.5769 83.054 30.2502 83.2587 30.9302 83.4471L31.4641 81.5197C30.816 81.3401 30.1744 81.145 29.5395 80.9348L28.9108 82.8334ZM32.9774 83.96C33.6615 84.1135 34.3517 84.2507 35.0475 84.371L35.3884 82.4003C34.7251 82.2856 34.0673 82.1549 33.4153 82.0085L32.9774 83.96ZM37.135 84.6794C37.8301 84.7646 38.5303 84.8332 39.235 84.8847L39.3808 82.89C38.7087 82.8409 38.0412 82.7755 37.3785 82.6943L37.135 84.6794ZM41.3421 84.9872C41.6937 84.9957 42.0464 85 42.4 85V83C42.0626 83 41.7261 82.9959 41.3906 82.9878L41.3421 84.9872ZM42.4 85H43.3694V83H42.4V85ZM45.3081 85H47.2469V83H45.3081V85ZM49.1856 85H51.1244V83H49.1856V85ZM53.0631 85H55.0019V83H53.0631V85ZM56.9406 85H58.8794V83H56.9406V85ZM60.8181 85H62.7569V83H60.8181V85ZM64.6956 85H66.6344V83H64.6956V85ZM68.5731 85H70.5119V83H68.5731V85ZM72.4506 85H74.3894V83H72.4506V85ZM76.3281 85H78.2669V83H76.3281V85ZM80.2056 85H82.1444V83H80.2056V85ZM84.0831 85H86.0219V83H84.0831V85ZM87.9606 85H89.8994V83H87.9606V85ZM91.8381 85H93.7769V83H91.8381V85ZM95.7156 85H97.6544V83H95.7156V85ZM99.5931 85H101.532V83H99.5931V85ZM103.471 85H104.44V83H103.471V85ZM104.44 85C104.794 85 105.146 84.9957 105.498 84.9872L105.449 82.9878C105.114 82.9959 104.777 83 104.44 83V85ZM107.605 84.8847C108.31 84.8332 109.01 84.7646 109.705 84.6794L109.462 82.6943C108.799 82.7755 108.131 82.8409 107.459 82.89L107.605 84.8847ZM111.793 84.371C112.488 84.2507 113.178 84.1135 113.863 83.96L113.425 82.0086C112.773 82.1549 112.115 82.2856 111.452 82.4003L111.793 84.371ZM115.91 83.4471C116.59 83.2587 117.263 83.054 117.929 82.8334L117.301 80.9348C116.666 81.1451 116.024 81.3401 115.376 81.5197L115.91 83.4471ZM119.916 82.1206C120.573 81.8662 121.223 81.596 121.865 81.3106L121.052 79.4833C120.44 79.7554 119.821 80.0129 119.194 80.2554L119.916 82.1206ZM123.771 80.4055C124.4 80.0877 125.02 79.755 125.63 79.4077L124.642 77.6692C124.06 78.0003 123.469 78.3175 122.869 78.6204L123.771 80.4055ZM127.439 78.3201C128.033 77.9425 128.617 77.5507 129.191 77.1453L128.038 75.5116C127.49 75.8983 126.933 76.2719 126.366 76.632L127.439 78.3201ZM130.885 75.8864C131.439 75.4529 131.982 75.0061 132.514 74.5465L131.207 73.0329C130.7 73.4713 130.181 73.8975 129.653 74.3109L130.885 75.8864ZM134.077 73.129C134.586 72.6439 135.084 72.1464 135.569 71.6371L134.121 70.2577C133.658 70.7435 133.184 71.218 132.698 71.6808L134.077 73.129ZM136.987 70.0745C137.446 69.5424 137.893 68.999 138.326 68.4447L136.751 67.2126C136.337 67.7413 135.911 68.2596 135.473 68.7671L136.987 70.0745ZM139.585 66.7515C139.991 66.1774 140.382 65.593 140.76 64.9987L139.072 63.9261C138.712 64.4928 138.338 65.0502 137.952 65.5977L139.585 66.7515ZM141.848 63.1905C142.195 62.5798 142.528 61.9598 142.845 61.331L141.06 60.429C140.757 61.0285 140.44 61.6196 140.109 62.2019L141.848 63.1905ZM143.751 59.4246C144.036 58.7831 144.306 58.1333 144.561 57.4757L142.695 56.7539C142.453 57.3807 142.195 58 141.923 58.6116L143.751 59.4246ZM145.273 55.4892C145.494 54.8231 145.699 54.1498 145.887 53.4698L143.96 52.9359C143.78 53.584 143.585 54.2257 143.375 54.8605L145.273 55.4892ZM146.4 51.4226C146.554 50.7385 146.691 50.0484 146.811 49.3525L144.84 49.0116C144.726 49.6749 144.595 50.3327 144.449 50.9847L146.4 51.4226ZM147.119 47.265C147.205 46.5699 147.273 45.8697 147.325 45.165L145.33 45.0192C145.281 45.6913 145.216 46.3588 145.134 47.0215L147.119 47.265ZM147.427 43.0579C147.436 42.7063 147.44 42.3536 147.44 42H145.44C145.44 42.3374 145.436 42.6739 145.428 43.0094L147.427 43.0579ZM147.44 42C147.44 41.6465 147.436 41.294 147.427 40.9425L145.428 40.9914C145.436 41.3267 145.44 41.6629 145.44 42H147.44ZM147.324 38.8358C147.272 38.1314 147.203 37.4315 147.117 36.7365L145.132 36.9818C145.214 37.6442 145.28 38.3114 145.329 38.9829L147.324 38.8358ZM146.806 34.6498C146.685 33.9545 146.547 33.2647 146.393 32.5809L144.442 33.0215C144.589 33.6732 144.72 34.3305 144.836 34.9931L146.806 34.6498ZM145.877 30.5351C145.688 29.8558 145.482 29.183 145.26 28.5173L143.363 29.1489C143.574 29.7834 143.77 30.4245 143.95 31.0719L145.877 30.5351ZM144.545 26.5327C144.29 25.8759 144.019 25.2268 143.732 24.5858L141.906 25.4014C142.179 26.0124 142.437 26.6312 142.681 27.2572L144.545 26.5327ZM142.825 22.6815C142.507 22.0534 142.173 21.4341 141.826 20.824L140.088 21.8145C140.42 22.3963 140.738 22.9869 141.041 23.5857L142.825 22.6815ZM140.737 19.0177C140.359 18.4241 139.967 17.8403 139.561 17.2667L137.928 18.4216C138.315 18.9687 138.689 19.5256 139.05 20.0918L140.737 19.0177ZM138.302 15.575C137.869 15.0212 137.422 14.4782 136.962 13.9464L135.449 15.254C135.887 15.7613 136.314 16.2794 136.727 16.8077L138.302 15.575ZM135.545 12.3846C135.061 11.8755 134.564 11.3782 134.055 10.8932L132.675 12.3409C133.16 12.8037 133.635 13.2781 134.097 13.7638L135.545 12.3846ZM132.493 9.4756C131.962 9.01595 131.419 8.56902 130.865 8.1353L129.632 9.70978C130.16 10.1235 130.678 10.5499 131.185 10.9884L132.493 9.4756ZM129.174 6.87554C128.601 6.46973 128.017 6.07755 127.423 5.69949L126.349 7.38638C126.915 7.74695 127.472 8.121 128.019 8.50808L129.174 6.87554ZM125.617 4.61019C125.007 4.26235 124.388 3.92897 123.76 3.61056L122.855 5.39446C123.454 5.69803 124.045 6.01589 124.626 6.34759L125.617 4.61019ZM121.855 2.70333C121.214 2.41716 120.565 2.14623 119.908 1.89102L119.184 3.75528C119.81 3.99852 120.429 4.25677 121.04 4.52956L121.855 2.70333ZM117.923 1.17592C117.258 0.954571 116.585 0.749119 115.905 0.56002L115.369 2.4868C116.017 2.667 116.658 2.8628 117.292 3.07374L117.923 1.17592ZM113.859 0.0449965C113.175 -0.109169 112.486 -0.246937 111.79 -0.367865L111.448 1.60257C112.11 1.71781 112.768 1.8491 113.419 1.99601L113.859 0.0449965ZM109.703 -0.677699C109.009 -0.763365 108.309 -0.832301 107.604 -0.884091L107.458 1.11053C108.129 1.1599 108.796 1.22562 109.459 1.30727L109.703 -0.677699ZM105.498 -0.987107C105.146 -0.99569 104.794 -1.00001 104.44 -1.00001V0.999994C104.777 0.999994 105.114 1.00411 105.449 1.0123L105.498 -0.987107ZM104.44 61.16H103.471V63.16H104.44V61.16ZM101.532 61.16H99.5931V63.16H101.532V61.16ZM97.6544 61.16H95.7156V63.16H97.6544V61.16ZM93.7769 61.16H91.8381V63.16H93.7769V61.16ZM89.8994 61.16H87.9606V63.16H89.8994V61.16ZM86.0219 61.16H84.0831V63.16H86.0219V61.16ZM82.1444 61.16H80.2056V63.16H82.1444V61.16ZM78.2669 61.16H76.3281V63.16H78.2669V61.16ZM74.3894 61.16H72.4506V63.16H74.3894V61.16ZM70.5119 61.16H68.5731V63.16H70.5119V61.16ZM66.6344 61.16H64.6956V63.16H66.6344V61.16ZM62.7569 61.16H60.8181V63.16H62.7569V61.16ZM58.8794 61.16H56.9406V63.16H58.8794V61.16ZM55.0019 61.16H53.0631V63.16H55.0019V61.16ZM51.1244 61.16H49.1856V63.16H51.1244V61.16ZM47.2469 61.16H45.3081V63.16H47.2469V61.16ZM43.3694 61.16H42.4V63.16H43.3694V61.16ZM42.4 61.16C42.084 61.16 41.77 61.1524 41.458 61.1374L41.3621 63.1351C41.706 63.1517 42.052 63.16 42.4 63.16V61.16ZM39.5843 60.9561C38.9585 60.8646 38.3428 60.743 37.7386 60.5929L37.2563 62.5339C37.9238 62.6997 38.6039 62.834 39.2949 62.9351L39.5843 60.9561ZM35.9383 60.0498C35.3448 59.8383 34.765 59.5984 34.2004 59.3317L33.3462 61.1401C33.9701 61.4348 34.6109 61.6999 35.2668 61.9337L35.9383 60.0498ZM32.5416 58.4456C32.0024 58.1224 31.4805 57.7735 30.9777 57.4004L29.786 59.0067C30.3414 59.4187 30.9178 59.8041 31.5134 60.1611L32.5416 58.4456ZM29.5236 56.2068C29.0587 55.7853 28.6147 55.3413 28.1932 54.8764L26.7114 56.2196C27.1768 56.733 27.667 57.2232 28.1803 57.6886L29.5236 56.2068ZM26.9996 53.4223C26.6265 52.9194 26.2776 52.3976 25.9544 51.8584L24.2389 52.8866C24.5959 53.4822 24.9813 54.0586 25.3933 54.614L26.9996 53.4223ZM25.0683 50.1996C24.8016 49.635 24.5617 49.0552 24.3502 48.4617L22.4663 49.1332C22.7001 49.7891 22.9652 50.4299 23.2599 51.0538L25.0683 50.1996ZM23.8071 46.6614C23.657 46.0572 23.5354 45.4415 23.4439 44.8157L21.4649 45.1051C21.566 45.7961 21.7003 46.4762 21.8661 47.1437L23.8071 46.6614ZM23.2626 42.942C23.2476 42.63 23.24 42.316 23.24 42H21.24C21.24 42.348 21.2483 42.694 21.2649 43.0379L23.2626 42.942ZM23.24 42C23.24 41.6855 23.2477 41.3729 23.2629 41.0622L21.2652 40.9646C21.2485 41.3077 21.24 41.6529 21.24 42H23.24ZM23.4464 39.1969C23.5389 38.5743 23.6618 37.9615 23.8135 37.36L21.8742 36.8709C21.7064 37.5365 21.5704 38.2144 21.4681 38.9029L23.4464 39.1969ZM24.3614 35.5688C24.5745 34.9789 24.8161 34.4023 25.0847 33.8407L23.2803 32.978C22.9834 33.599 22.7161 34.2367 22.4804 34.8893L24.3614 35.5688ZM25.9756 32.1922C26.3 31.6568 26.6503 31.1384 27.0247 30.6387L25.4242 29.4394C25.0106 29.9913 24.6237 30.564 24.2651 31.1556L25.9756 32.1922ZM28.2211 29.195C28.643 28.7337 29.0874 28.2931 29.5527 27.8747L28.2154 26.3875C27.7018 26.8493 27.2112 27.3359 26.7453 27.8452L28.2211 29.195ZM31.0065 26.6904C31.509 26.3203 32.0303 25.9741 32.5687 25.6535L31.5455 23.9351C30.9508 24.2892 30.3752 24.6714 29.8205 25.08L31.0065 26.6904ZM34.2245 24.7744C34.7879 24.5099 35.3663 24.2718 35.9583 24.0619L35.2898 22.1769C34.6358 22.4088 33.9967 22.6718 33.3744 22.9641L34.2245 24.7744ZM37.7536 23.523C38.3559 23.374 38.9697 23.2533 39.5935 23.1624L39.3052 21.1833C38.6166 21.2836 37.9387 21.4169 37.2733 21.5815L37.7536 23.523ZM41.4611 22.9824C41.7721 22.9675 42.0851 22.96 42.4 22.96V20.96C42.0532 20.96 41.7083 20.9683 41.3655 20.9847L41.4611 22.9824ZM42.4 22.96H43.3694V20.96H42.4V22.96ZM45.3081 22.96H47.2469V20.96H45.3081V22.96ZM49.1856 22.96H51.1244V20.96H49.1856V22.96ZM53.0631 22.96H55.0019V20.96H53.0631V22.96ZM56.9406 22.96H58.8794V20.96H56.9406V22.96ZM60.8181 22.96H62.7569V20.96H60.8181V22.96ZM64.6956 22.96H66.6344V20.96H64.6956V22.96ZM68.5731 22.96H70.5119V20.96H68.5731V22.96ZM72.4506 22.96H74.3894V20.96H72.4506V22.96ZM76.3281 22.96H78.2669V20.96H76.3281V22.96ZM80.2056 22.96H82.1444V20.96H80.2056V22.96ZM84.0831 22.96H86.0219V20.96H84.0831V22.96ZM87.9606 22.96H89.8994V20.96H87.9606V22.96ZM91.8381 22.96H93.7769V20.96H91.8381V22.96ZM95.7156 22.96H97.6544V20.96H95.7156V22.96ZM99.5931 22.96H101.532V20.96H99.5931V22.96ZM103.471 22.96H104.44V20.96H103.471V22.96ZM104.44 22.96C104.753 22.96 105.065 22.9676 105.375 22.9827L105.472 20.9851C105.13 20.9684 104.786 20.96 104.44 20.96V22.96ZM107.234 23.1649C107.854 23.2568 108.465 23.3788 109.065 23.5293L109.552 21.5895C108.889 21.423 108.213 21.2881 107.527 21.1865L107.234 23.1649ZM110.851 24.073C111.44 24.2845 112.015 24.5242 112.575 24.7906L113.434 22.9843C112.814 22.6899 112.178 22.4248 111.528 22.1909L110.851 24.073ZM114.221 25.6745C114.756 25.9964 115.273 26.3439 115.773 26.7153L116.966 25.1106C116.415 24.7005 115.843 24.3167 115.252 23.961L114.221 25.6745ZM117.216 27.9023C117.678 28.3212 118.119 28.7623 118.538 29.224L120.019 27.8801C119.556 27.3705 119.07 26.8835 118.56 26.4211L117.216 27.9023ZM119.725 30.6674C120.096 31.1667 120.444 31.6845 120.766 32.2192L122.479 31.1876C122.123 30.5969 121.739 30.025 121.329 29.4737L119.725 30.6674ZM121.649 33.8648C121.916 34.4251 122.156 35.0003 122.367 35.5888L124.249 34.9123C124.015 34.2616 123.75 33.6256 123.456 33.0061L121.649 33.8648ZM122.911 37.3749C123.061 37.9746 123.183 38.5855 123.275 39.2061L125.254 38.9133C125.152 38.227 125.017 37.5513 124.85 36.8879L122.911 37.3749ZM123.457 41.0653C123.472 41.3749 123.48 41.6866 123.48 42H125.48C125.48 41.6541 125.472 41.3101 125.455 40.968L123.457 41.0653ZM123.48 42C123.48 42.3149 123.472 42.6279 123.458 42.9389L125.455 43.0345C125.472 42.6917 125.48 42.3468 125.48 42H123.48ZM123.278 44.8065C123.187 45.4303 123.066 46.0441 122.917 46.6464L124.858 47.1267C125.023 46.4613 125.156 45.7834 125.257 45.0948L123.278 44.8065ZM122.378 48.4417C122.168 49.0337 121.93 49.6121 121.666 50.1755L123.476 51.0256C123.768 50.4033 124.031 49.7642 124.263 49.1102L122.378 48.4417ZM120.787 51.8313C120.466 52.3697 120.12 52.891 119.75 53.3935L121.36 54.5795C121.769 54.0248 122.151 53.4492 122.505 52.8545L120.787 51.8313ZM118.565 54.8473C118.147 55.3126 117.706 55.757 117.245 56.1789L118.595 57.6547C119.104 57.1888 119.591 56.6982 120.052 56.1846L118.565 54.8473ZM115.801 57.3753C115.302 57.7497 114.783 58.1 114.248 58.4244L115.284 60.1349C115.876 59.7763 116.449 59.3894 117.001 58.9758L115.801 57.3753ZM112.599 59.3153C112.038 59.5839 111.461 59.8255 110.871 60.0386L111.551 61.9196C112.203 61.6839 112.841 61.4166 113.462 61.1197L112.599 59.3153ZM109.08 60.5865C108.478 60.7382 107.866 60.8611 107.243 60.9536L107.537 62.9319C108.226 62.8296 108.904 62.6936 109.569 62.5258L109.08 60.5865ZM105.378 61.1371C105.067 61.1523 104.754 61.16 104.44 61.16V63.16C104.787 63.16 105.132 63.1515 105.475 63.1348L105.378 61.1371ZM104.44 -2.00001H103.471V1.99999H104.44V-2.00001ZM101.532 -2.00001H99.5931V1.99999H101.532V-2.00001ZM97.6544 -2.00001H95.7156V1.99999H97.6544V-2.00001ZM93.7769 -2.00001H91.8381V1.99999H93.7769V-2.00001ZM89.8994 -2.00001H87.9606V1.99999H89.8994V-2.00001ZM86.0219 -2.00001H84.0831V1.99999H86.0219V-2.00001ZM82.1444 -2.00001H80.2056V1.99999H82.1444V-2.00001ZM78.2669 -2.00001H76.3281V1.99999H78.2669V-2.00001ZM74.3894 -2.00001H72.4506V1.99999H74.3894V-2.00001ZM70.5119 -2.00001H68.5731V1.99999H70.5119V-2.00001ZM66.6344 -2.00001H64.6956V1.99999H66.6344V-2.00001ZM62.7569 -2.00001H60.8181V1.99999H62.7569V-2.00001ZM58.8794 -2.00001H56.9406V1.99999H58.8794V-2.00001ZM55.0019 -2.00001H53.0631V1.99999H55.0019V-2.00001ZM51.1244 -2.00001H49.1856V1.99999H51.1244V-2.00001ZM47.2469 -2.00001H45.3081V1.99999H47.2469V-2.00001ZM43.3694 -2.00001H42.4V1.99999H43.3694V-2.00001ZM42.4 -2.00001C42.0383 -2.00001 41.6777 -1.99559 41.318 -1.98681L41.4156 2.012C41.7428 2.00401 42.0709 1.99999 42.4 1.99999V-2.00001ZM39.1625 -1.8814C38.4416 -1.8284 37.7254 -1.75786 37.0142 -1.67019L37.5037 2.29976C38.1497 2.22011 38.8005 2.156 39.4558 2.10784L39.1625 -1.8814ZM34.8785 -1.35308C34.1667 -1.22931 33.4607 -1.08831 32.7609 -0.930514L33.6407 2.97152C34.2762 2.82824 34.9173 2.70019 35.5638 2.58778L34.8785 -1.35308ZM30.6667 -0.403373C29.9712 -0.209826 29.2826 0.00045713 28.6013 0.227002L29.8635 4.02265C30.4822 3.81691 31.1075 3.62595 31.7391 3.45019L30.6667 -0.403373ZM26.5698 0.958886C25.8975 1.22008 25.2332 1.49735 24.5772 1.79021L26.208 5.44267C26.804 5.17657 27.4076 4.92467 28.0183 4.68741L26.5698 0.958886ZM22.6283 2.71862C21.9856 3.04444 21.3518 3.38557 20.7276 3.74149L22.709 7.21628C23.2765 6.89267 23.8527 6.58256 24.4369 6.2864L22.6283 2.71862ZM18.8796 4.85604C18.2723 5.24285 17.6751 5.64409 17.0884 6.05926L19.3991 9.32435C19.9328 8.94664 20.4761 8.58165 21.0284 8.22983L18.8796 4.85604ZM15.3581 7.34805C14.7916 7.79176 14.2363 8.24897 13.6925 8.71918L16.3088 11.7448C16.8038 11.3169 17.3092 10.9008 17.8246 10.497L15.3581 7.34805ZM12.0954 10.1693C11.5748 10.6655 11.0663 11.1742 10.5704 11.6949L13.467 14.4535C13.9184 13.9795 14.3813 13.5164 14.8552 13.0647L12.0954 10.1693ZM9.12097 13.2926C8.65096 13.8366 8.19398 14.3921 7.75054 14.9587L10.9004 17.4241C11.304 16.9085 11.7199 16.4029 12.1477 15.9077L9.12097 13.2926ZM6.4624 16.6893C6.04739 17.2761 5.64633 17.8734 5.25973 18.4807L8.63398 20.6288C8.98567 20.0764 9.35055 19.5329 9.72817 18.999L6.4624 16.6893ZM4.1456 20.3288C3.78974 20.953 3.44869 21.5867 3.12295 22.2293L6.69078 24.0378C6.98691 23.4536 7.29701 22.8774 7.62063 22.3097L4.1456 20.3288ZM2.19458 24.1781C1.90165 24.834 1.62432 25.4983 1.36308 26.1704L5.09135 27.6195C5.3287 27.0089 5.5807 26.4053 5.84692 25.8091L2.19458 24.1781ZM0.630809 28.2015C0.404062 28.8829 0.193593 29.5714 -0.000131154 30.2667L3.85309 31.3403C4.02902 30.7089 4.22018 30.0835 4.42613 29.4647L0.630809 28.2015ZM-0.527971 32.3606C-0.686046 33.0605 -0.827306 33.7665 -0.951306 34.4781L2.98932 35.1647C3.10193 34.5185 3.23021 33.8774 3.37375 33.2418L-0.527971 32.3606ZM-1.26915 36.6138C-1.35708 37.3251 -1.42783 38.0414 -1.48098 38.7622L2.50819 39.0564C2.55649 38.4014 2.62077 37.7506 2.70064 37.1045L-1.26915 36.6138ZM-1.58676 40.918C-1.59557 41.2777 -1.6 41.6384 -1.6 42H2.4C2.4 41.6711 2.40403 41.343 2.41204 41.0159L-1.58676 40.918ZM-1.6 42C-1.6 42.3617 -1.59561 42.7224 -1.58688 43.0821L2.41194 42.9851C2.404 42.6577 2.4 42.3293 2.4 42H-1.6ZM-1.48206 45.2379C-1.42935 45.959 -1.35917 46.6754 -1.27195 47.3867L2.69831 46.8998C2.61904 46.2533 2.55523 45.602 2.5073 44.9463L-1.48206 45.2379ZM-0.95641 49.523C-0.833221 50.2351 -0.692857 50.9414 -0.535759 51.6415L3.36718 50.7657C3.22448 50.1298 3.09697 49.4881 2.98505 48.8411L-0.95641 49.523ZM-0.0107976 53.7368C0.182001 54.4327 0.391503 55.1218 0.617245 55.8035L4.41448 54.5462C4.20943 53.9269 4.01914 53.301 3.84402 52.6689L-0.0107976 53.7368ZM1.34675 57.8366C1.60717 58.5096 1.88367 59.1745 2.17576 59.8311L5.83037 58.2051C5.56496 57.6085 5.31375 57.0044 5.07716 56.393L1.34675 57.8366ZM3.102 61.782C3.42716 62.4255 3.76764 63.0599 4.12296 63.6848L7.60014 61.7076C7.27712 61.1395 6.96762 60.5628 6.6721 59.978L3.102 61.782ZM5.23591 65.535C5.62226 66.1431 6.02309 66.741 6.43792 67.3283L9.70519 65.0208C9.32789 64.4866 8.96336 63.9428 8.61204 63.3898L5.23591 65.535ZM7.72592 69.0607C8.16944 69.6278 8.62653 70.1838 9.09671 70.7281L12.1238 68.1135C11.6961 67.6182 11.2802 67.1124 10.8768 66.5965L7.72592 69.0607ZM10.5469 72.3268C11.0432 72.8478 11.5521 73.3568 12.0732 73.853L14.832 70.9567C14.3579 70.5051 13.8949 70.0421 13.4433 69.568L10.5469 72.3268ZM13.6719 75.3033C14.2162 75.7735 14.7722 76.2306 15.3393 76.6741L17.8035 73.5232C17.2876 73.1198 16.7818 72.7039 16.2865 72.2762L13.6719 75.3033ZM17.0717 77.9621C17.659 78.3769 18.2569 78.7777 18.865 79.1641L21.0102 75.788C20.4572 75.4366 19.9134 75.0721 19.3792 74.6948L17.0717 77.9621ZM20.7152 80.277C21.3401 80.6324 21.9745 80.9728 22.618 81.298L24.422 77.7279C23.8372 77.4324 23.2605 77.1229 22.6924 76.7999L20.7152 80.277ZM24.5689 82.2242C25.2254 82.5163 25.8904 82.7928 26.5634 83.0532L28.007 79.3228C27.3956 79.0862 26.7915 78.835 26.1949 78.5696L24.5689 82.2242ZM28.5965 83.7828C29.2782 84.0085 29.9673 84.218 30.6632 84.4108L31.7311 80.556C31.099 80.3809 30.4731 80.1906 29.8538 79.9855L28.5965 83.7828ZM32.7585 84.9358C33.4586 85.0929 34.1649 85.2332 34.877 85.3564L35.5589 81.415C34.9119 81.303 34.2702 81.1755 33.6343 81.0328L32.7585 84.9358ZM37.0133 85.672C37.7246 85.7592 38.441 85.8293 39.1621 85.8821L39.4537 81.8927C38.798 81.8448 38.1467 81.781 37.5002 81.7017L37.0133 85.672ZM41.3179 85.9869C41.6776 85.9956 42.0383 86 42.4 86V82C42.0707 82 41.7423 81.996 41.4149 81.9881L41.3179 85.9869ZM42.4 86H43.3694V82H42.4V86ZM45.3081 86H47.2469V82H45.3081V86ZM49.1856 86H51.1244V82H49.1856V86ZM53.0631 86H55.0019V82H53.0631V86ZM56.9406 86H58.8794V82H56.9406V86ZM60.8181 86H62.7569V82H60.8181V86ZM64.6956 86H66.6344V82H64.6956V86ZM68.5731 86H70.5119V82H68.5731V86ZM72.4506 86H74.3894V82H72.4506V86ZM76.3281 86H78.2669V82H76.3281V86ZM80.2056 86H82.1444V82H80.2056V86ZM84.0831 86H86.0219V82H84.0831V86ZM87.9606 86H89.8994V82H87.9606V86ZM91.8381 86H93.7769V82H91.8381V86ZM95.7156 86H97.6544V82H95.7156V86ZM99.5931 86H101.532V82H99.5931V86ZM103.471 86H104.44V82H103.471V86ZM104.44 86C104.802 86 105.162 85.9956 105.522 85.9869L105.425 81.9881C105.098 81.996 104.769 82 104.44 82V86ZM107.678 85.8821C108.399 85.8293 109.115 85.7592 109.827 85.672L109.34 81.7017C108.693 81.781 108.042 81.8448 107.386 81.8927L107.678 85.8821ZM111.963 85.3564C112.675 85.2332 113.381 85.0929 114.082 84.9358L113.206 81.0328C112.57 81.1755 111.928 81.303 111.281 81.415L111.963 85.3564ZM116.177 84.4108C116.873 84.218 117.562 84.0085 118.244 83.7828L116.986 79.9855C116.367 80.1906 115.741 80.3809 115.109 80.556L116.177 84.4108ZM120.277 83.0532C120.95 82.7928 121.615 82.5163 122.271 82.2242L120.645 78.5696C120.049 78.835 119.444 79.0863 118.833 79.3228L120.277 83.0532ZM124.222 81.298C124.865 80.9728 125.5 80.6324 126.125 80.277L124.148 76.7999C123.58 77.1229 123.003 77.4324 122.418 77.7279L124.222 81.298ZM127.975 79.1641C128.583 78.7777 129.181 78.3769 129.768 77.9621L127.461 74.6948C126.927 75.0721 126.383 75.4366 125.83 75.788L127.975 79.1641ZM131.501 76.6741C132.068 76.2306 132.624 75.7735 133.168 75.3033L130.553 72.2762C130.058 72.7039 129.552 73.1198 129.037 73.5232L131.501 76.6741ZM134.767 73.8531C135.288 73.3568 135.797 72.8479 136.293 72.3268L133.397 69.568C132.945 70.0421 132.482 70.5051 132.008 70.9567L134.767 73.8531ZM137.743 70.7281C138.213 70.1838 138.671 69.6278 139.114 69.0607L135.963 66.5965C135.56 67.1124 135.144 67.6182 134.716 68.1135L137.743 70.7281ZM140.402 67.3284C140.817 66.741 141.218 66.1431 141.604 65.535L138.228 63.3899C137.877 63.9428 137.512 64.4866 137.135 65.0208L140.402 67.3284ZM142.717 63.6848C143.072 63.0599 143.413 62.4255 143.738 61.782L140.168 59.978C139.872 60.5628 139.563 61.1395 139.24 61.7076L142.717 63.6848ZM144.664 59.8311C144.956 59.1746 145.233 58.5096 145.493 57.8366L141.763 56.393C141.526 57.0044 141.275 57.6085 141.01 58.2051L144.664 59.8311ZM146.223 55.8036C146.448 55.1218 146.658 54.4327 146.851 53.7368L142.996 52.6689C142.821 53.301 142.631 53.9269 142.426 54.5462L146.223 55.8036ZM147.376 51.6415C147.533 50.9414 147.673 50.2351 147.796 49.523L143.855 48.8412C143.743 49.4881 143.616 50.1298 143.473 50.7657L147.376 51.6415ZM148.112 47.3867C148.199 46.6754 148.269 45.959 148.322 45.2379L144.333 44.9463C144.285 45.602 144.221 46.2533 144.142 46.8998L148.112 47.3867ZM148.427 43.0822C148.436 42.7224 148.44 42.3617 148.44 42H144.44C144.44 42.3293 144.436 42.6577 144.428 42.9851L148.427 43.0822ZM148.44 42C148.44 41.6384 148.436 41.2777 148.427 40.918L144.428 41.0159C144.436 41.343 144.44 41.6711 144.44 42H148.44ZM148.321 38.7622C148.268 38.0414 148.197 37.3251 148.109 36.6138L144.139 37.1045C144.219 37.7506 144.284 38.4014 144.332 39.0564L148.321 38.7622ZM147.791 34.4781C147.667 33.7665 147.526 33.0605 147.368 32.3606L143.466 33.2418C143.61 33.8774 143.738 34.5185 143.851 35.1647L147.791 34.4781ZM146.84 30.2667C146.646 29.5714 146.436 28.8829 146.209 28.2016L142.414 29.4647C142.62 30.0835 142.811 30.7089 142.987 31.3403L146.84 30.2667ZM145.477 26.1704C145.216 25.4983 144.938 24.834 144.645 24.1781L140.993 25.8091C141.259 26.4053 141.511 27.0089 141.749 27.6195L145.477 26.1704ZM143.717 22.2293C143.391 21.5867 143.05 20.953 142.694 20.3288L139.219 22.3097C139.543 22.8774 139.853 23.4536 140.149 24.0378L143.717 22.2293ZM141.58 18.4807C141.194 17.8734 140.793 17.2761 140.378 16.6893L137.112 18.999C137.489 19.5329 137.854 20.0764 138.206 20.6288L141.58 18.4807ZM139.089 14.9587C138.646 14.3921 138.189 13.8366 137.719 13.2926L134.692 15.9078C135.12 16.4029 135.536 16.9085 135.94 17.4241L139.089 14.9587ZM136.27 11.6949C135.774 11.1742 135.265 10.6655 134.745 10.1693L131.985 13.0647C132.459 13.5164 132.922 13.9795 133.373 14.4535L136.27 11.6949ZM133.148 8.71918C132.604 8.24897 132.048 7.79176 131.482 7.34806L129.015 10.497C129.531 10.9008 130.036 11.3169 130.531 11.7448L133.148 8.71918ZM129.752 6.05926C129.165 5.64409 128.568 5.24285 127.96 4.85604L125.812 8.22983C126.364 8.58165 126.907 8.94664 127.441 9.32435L129.752 6.05926ZM126.112 3.7415C125.488 3.38557 124.854 3.04445 124.212 2.71862L122.403 6.2864C122.987 6.58256 123.563 6.89267 124.131 7.21629L126.112 3.7415ZM122.263 1.79021C121.607 1.49735 120.943 1.22008 120.27 0.958887L118.822 4.68741C119.432 4.92467 120.036 5.17657 120.632 5.44268L122.263 1.79021ZM118.239 0.227003C117.557 0.000458766 116.869 -0.209824 116.173 -0.403372L115.101 3.4502C115.732 3.62595 116.358 3.81691 116.977 4.02265L118.239 0.227003ZM114.079 -0.930513C113.379 -1.08831 112.673 -1.22931 111.961 -1.35308L111.276 2.58779C111.923 2.70019 112.564 2.82824 113.199 2.97152L114.079 -0.930513ZM109.826 -1.67019C109.115 -1.75786 108.398 -1.8284 107.677 -1.8814L107.384 2.10784C108.039 2.156 108.69 2.22011 109.336 2.29976L109.826 -1.67019ZM105.522 -1.98681C105.162 -1.99559 104.802 -2.00001 104.44 -2.00001V1.99999C104.769 1.99999 105.097 2.00401 105.424 2.012L105.522 -1.98681ZM104.44 60.16H103.471V64.16H104.44V60.16ZM101.532 60.16H99.5931V64.16H101.532V60.16ZM97.6544 60.16H95.7156V64.16H97.6544V60.16ZM93.7769 60.16H91.8381V64.16H93.7769V60.16ZM89.8994 60.16H87.9606V64.16H89.8994V60.16ZM86.0219 60.16H84.0831V64.16H86.0219V60.16ZM82.1444 60.16H80.2056V64.16H82.1444V60.16ZM78.2669 60.16H76.3281V64.16H78.2669V60.16ZM74.3894 60.16H72.4506V64.16H74.3894V60.16ZM70.5119 60.16H68.5731V64.16H70.5119V60.16ZM66.6344 60.16H64.6956V64.16H66.6344V60.16ZM62.7569 60.16H60.8181V64.16H62.7569V60.16ZM58.8794 60.16H56.9406V64.16H58.8794V60.16ZM55.0019 60.16H53.0631V64.16H55.0019V60.16ZM51.1244 60.16H49.1856V64.16H51.1244V60.16ZM47.2469 60.16H45.3081V64.16H47.2469V60.16ZM43.3694 60.16H42.4V64.16H43.3694V60.16ZM42.4 60.16C42.1 60.16 41.802 60.1528 41.5059 60.1386L41.3141 64.134C41.674 64.1513 42.036 64.16 42.4 64.16V60.16ZM39.729 59.9667C39.1358 59.8799 38.5522 59.7647 37.9798 59.6224L37.0152 63.5043C37.7144 63.6781 38.4267 63.8187 39.1502 63.9246L39.729 59.9667ZM36.274 59.1079C35.7118 58.9075 35.1624 58.6802 34.6275 58.4275L32.9191 62.0443C33.5727 62.353 34.2439 62.6308 34.931 62.8757L36.274 59.1079ZM33.0556 57.5878C32.5447 57.2816 32.0501 56.9509 31.5735 56.5973L29.1902 59.8098C29.7718 60.2412 30.3755 60.6449 30.9993 61.0188L33.0556 57.5878ZM30.1952 55.4659C29.7545 55.0664 29.3336 54.6455 28.9341 54.2048L25.9705 56.8913C26.4578 57.4288 26.9712 57.9422 27.5087 58.4295L30.1952 55.4659ZM27.8027 52.8265C27.4491 52.3499 27.1184 51.8553 26.8122 51.3444L23.3812 53.4007C23.7551 54.0245 24.1587 54.6282 24.5902 55.2098L27.8027 52.8265ZM25.9725 49.7725C25.7198 49.2376 25.4925 48.6882 25.2921 48.126L21.5243 49.469C21.7692 50.1561 22.047 50.8273 22.3557 51.4809L25.9725 49.7725ZM24.7776 46.4202C24.6353 45.8478 24.5201 45.2642 24.4333 44.671L20.4754 45.2498C20.5813 45.9733 20.7219 46.6856 20.8957 47.3848L24.7776 46.4202ZM24.2614 42.8941C24.2472 42.598 24.24 42.3 24.24 42H20.24C20.24 42.364 20.2487 42.726 20.266 43.0859L24.2614 42.8941ZM24.24 42C24.24 41.7018 24.2473 41.4054 24.2617 41.111L20.2664 40.9158C20.2489 41.2752 20.24 41.6367 20.24 42H24.24ZM24.4355 39.3439C24.5232 38.7543 24.6395 38.174 24.7831 37.6045L20.9046 36.6264C20.7287 37.3239 20.5862 38.0344 20.479 38.7559L24.4355 39.3439ZM25.3019 35.9086C25.5037 35.35 25.7325 34.804 25.9868 34.2721L22.3781 32.5466C22.067 33.1973 21.7869 33.8656 21.5399 34.5495L25.3019 35.9086ZM26.8308 32.7104C27.1382 32.2031 27.4701 31.7119 27.8249 31.2384L24.6239 28.8398C24.1908 29.4177 23.7855 30.0176 23.4099 30.6374L26.8308 32.7104ZM28.9589 29.87C29.3589 29.4327 29.7802 29.0149 30.2213 28.6183L27.5468 25.6439C27.009 26.1275 26.4952 26.6369 26.0074 27.1702L28.9589 29.87ZM31.5996 27.4956C32.0759 27.1448 32.57 26.8166 33.0804 26.5127L31.0339 23.0759C30.4111 23.4467 29.8083 23.847 29.2275 24.2748L31.5996 27.4956ZM34.6496 25.6796C35.1834 25.4289 35.7316 25.2033 36.2925 25.0044L34.9556 21.2344C34.2705 21.4774 33.6011 21.7528 32.9493 22.0589L34.6496 25.6796ZM37.9937 24.4937C38.5645 24.3525 39.1463 24.2381 39.7377 24.152L39.1611 20.1938C38.44 20.2988 37.7301 20.4384 37.0332 20.6108L37.9937 24.4937ZM41.5089 23.9813C41.8039 23.9671 42.101 23.96 42.4 23.96V19.96C42.0373 19.96 41.6764 19.9687 41.3177 19.9858L41.5089 23.9813ZM42.4 23.96H43.3694V19.96H42.4V23.96ZM45.3081 23.96H47.2469V19.96H45.3081V23.96ZM49.1856 23.96H51.1244V19.96H49.1856V23.96ZM53.0631 23.96H55.0019V19.96H53.0631V23.96ZM56.9406 23.96H58.8794V19.96H56.9406V23.96ZM60.8181 23.96H62.7569V19.96H60.8181V23.96ZM64.6956 23.96H66.6344V19.96H64.6956V23.96ZM68.5731 23.96H70.5119V19.96H68.5731V23.96ZM72.4506 23.96H74.3894V19.96H72.4506V23.96ZM76.3281 23.96H78.2669V19.96H76.3281V23.96ZM80.2056 23.96H82.1444V19.96H80.2056V23.96ZM84.0831 23.96H86.0219V19.96H84.0831V23.96ZM87.9606 23.96H89.8994V19.96H87.9606V23.96ZM91.8381 23.96H93.7769V19.96H91.8381V23.96ZM95.7156 23.96H97.6544V19.96H95.7156V23.96ZM99.5931 23.96H101.532V19.96H99.5931V23.96ZM103.471 23.96H104.44V19.96H103.471V23.96ZM104.44 23.96C104.737 23.96 105.033 23.9672 105.326 23.9815L105.521 19.9863C105.162 19.9688 104.802 19.96 104.44 19.96V23.96ZM107.087 24.1542C107.675 24.2412 108.254 24.3567 108.822 24.4992L109.796 20.6196C109.1 20.4451 108.392 20.3037 107.673 20.1973L107.087 24.1542ZM110.513 25.0141C111.07 25.2144 111.615 25.4414 112.146 25.6938L113.863 22.0812C113.214 21.7727 112.548 21.4949 111.866 21.2498L110.513 25.0141ZM113.705 26.5312C114.212 26.8362 114.702 27.1656 115.176 27.5176L117.563 24.3082C116.986 23.8788 116.387 23.4769 115.768 23.1043L113.705 26.5312ZM116.544 28.6429C116.982 29.04 117.4 29.4582 117.797 29.8959L120.759 27.2081C120.275 26.6745 119.765 26.1647 119.232 25.6805L116.544 28.6429ZM118.922 31.2643C119.274 31.7375 119.604 32.2283 119.909 32.735L123.336 30.6718C122.963 30.0531 122.561 29.4541 122.132 28.8769L118.922 31.2643ZM120.746 34.2941C120.999 34.8249 121.226 35.3697 121.426 35.927L125.19 34.5741C124.945 33.8922 124.667 33.2258 124.359 32.5768L120.746 34.2941ZM121.941 37.6183C122.083 38.1862 122.199 38.7648 122.286 39.3526L126.243 38.7669C126.136 38.0478 125.995 37.3397 125.82 36.6444L121.941 37.6183ZM122.458 41.1139C122.473 41.4074 122.48 41.7028 122.48 42H126.48C126.48 41.6379 126.471 41.2776 126.454 40.9194L122.458 41.1139ZM122.48 42C122.48 42.299 122.473 42.5961 122.459 42.8911L126.454 43.0823C126.471 42.7236 126.48 42.3627 126.48 42H122.48ZM122.288 44.6623C122.202 45.2538 122.087 45.8355 121.946 46.4063L125.829 47.3668C126.002 46.6699 126.141 45.96 126.246 45.2389L122.288 44.6623ZM121.436 48.1075C121.237 48.6684 121.011 49.2166 120.76 49.7504L124.381 51.4507C124.687 50.7989 124.963 50.1295 125.206 49.4444L121.436 48.1075ZM119.927 51.3196C119.623 51.83 119.295 52.3241 118.944 52.8004L122.165 55.1725C122.593 54.5917 122.993 53.9889 123.364 53.3661L119.927 51.3196ZM117.822 54.1787C117.425 54.6198 117.007 55.0411 116.57 55.4411L119.27 58.3926C119.803 57.9048 120.313 57.391 120.796 56.8532L117.822 54.1787ZM115.202 56.5751C114.728 56.9299 114.237 57.2618 113.73 57.5692L115.803 60.9901C116.422 60.6145 117.022 60.2092 117.6 59.7761L115.202 56.5751ZM112.168 58.4132C111.636 58.6675 111.09 58.8963 110.531 59.0981L111.89 62.8601C112.574 62.6131 113.243 62.333 113.893 62.0219L112.168 58.4132ZM108.835 59.6169C108.266 59.7605 107.686 59.8768 107.096 59.9645L107.684 63.921C108.406 63.8138 109.116 63.6713 109.814 63.4954L108.835 59.6169ZM105.329 60.1383C105.035 60.1527 104.738 60.16 104.44 60.16V64.16C104.803 64.16 105.165 64.1511 105.524 64.1336L105.329 60.1383ZM328.989 -5.72205e-06V-1.00001H327.989V-5.72205e-06H328.989ZM350.949 -5.72205e-06H351.949V-1.00001H350.949V-5.72205e-06ZM350.949 84V85H351.949V84H350.949ZM328.989 84H327.989V85H328.989V84ZM328.989 51.24H329.989V50.24H328.989V51.24ZM263.229 51.24V50.24H262.229V51.24H263.229ZM263.229 84V85H264.229V84H263.229ZM241.389 84H240.389V85H241.389V84ZM241.389 -5.72205e-06V-1.00001H240.389V-5.72205e-06H241.389ZM263.229 -5.72205e-06H264.229V-1.00001H263.229V-5.72205e-06ZM263.229 29.28H262.229V30.28H263.229V29.28ZM328.989 29.28V30.28H329.989V29.28H328.989ZM327.989 -5.72205e-06V1.04571H329.989V-5.72205e-06H327.989ZM327.989 3.13714V5.22857H329.989V3.13714H327.989ZM327.989 7.31999V9.41142H329.989V7.31999H327.989ZM327.989 11.5029V13.5943H329.989V11.5029H327.989ZM327.989 15.6857V17.7771H329.989V15.6857H327.989ZM327.989 19.8686V21.96H329.989V19.8686H327.989ZM327.989 24.0514V26.1429H329.989V24.0514H327.989ZM327.989 28.2343V29.28H329.989V28.2343H327.989ZM328.989 28.28H327.962V30.28H328.989V28.28ZM325.907 28.28H323.852V30.28H325.907V28.28ZM321.797 28.28H319.742V30.28H321.797V28.28ZM317.687 28.28H315.632V30.28H317.687V28.28ZM313.577 28.28H311.522V30.28H313.577V28.28ZM309.467 28.28H307.412V30.28H309.467V28.28ZM305.357 28.28H303.302V30.28H305.357V28.28ZM301.247 28.28H299.192V30.28H301.247V28.28ZM297.137 28.28H295.082V30.28H297.137V28.28ZM293.027 28.28H290.972V30.28H293.027V28.28ZM288.917 28.28H286.862V30.28H288.917V28.28ZM284.807 28.28H282.752V30.28H284.807V28.28ZM280.697 28.28H278.642V30.28H280.697V28.28ZM276.587 28.28H274.532V30.28H276.587V28.28ZM272.477 28.28H270.422V30.28H272.477V28.28ZM268.367 28.28H266.312V30.28H268.367V28.28ZM264.257 28.28H263.229V30.28H264.257V28.28ZM264.229 29.28V28.2343H262.229V29.28H264.229ZM264.229 26.1429V24.0514H262.229V26.1429H264.229ZM264.229 21.96V19.8686H262.229V21.96H264.229ZM264.229 17.7771V15.6857H262.229V17.7771H264.229ZM264.229 13.5943V11.5029H262.229V13.5943H264.229ZM264.229 9.41142V7.31999H262.229V9.41142H264.229ZM264.229 5.22857V3.13714H262.229V5.22857H264.229ZM264.229 1.04571V-5.72205e-06H262.229V1.04571H264.229ZM263.229 -1.00001H262.137V0.999994H263.229V-1.00001ZM259.953 -1.00001H257.769V0.999994H259.953V-1.00001ZM255.585 -1.00001H253.401V0.999994H255.585V-1.00001ZM251.217 -1.00001H249.033V0.999994H251.217V-1.00001ZM246.849 -1.00001H244.665V0.999994H246.849V-1.00001ZM242.481 -1.00001H241.389V0.999994H242.481V-1.00001ZM240.389 -5.72205e-06V0.999994H242.389V-5.72205e-06H240.389ZM240.389 2.99999V5H242.389V2.99999H240.389ZM240.389 6.99999V8.99999H242.389V6.99999H240.389ZM240.389 11V13H242.389V11H240.389ZM240.389 15V17H242.389V15H240.389ZM240.389 19V21H242.389V19H240.389ZM240.389 23V25H242.389V23H240.389ZM240.389 27V29H242.389V27H240.389ZM240.389 31V33H242.389V31H240.389ZM240.389 35V37H242.389V35H240.389ZM240.389 39V41H242.389V39H240.389ZM240.389 43V45H242.389V43H240.389ZM240.389 47V49H242.389V47H240.389ZM240.389 51V53H242.389V51H240.389ZM240.389 55V57H242.389V55H240.389ZM240.389 59V61H242.389V59H240.389ZM240.389 63V65H242.389V63H240.389ZM240.389 67V69H242.389V67H240.389ZM240.389 71V73H242.389V71H240.389ZM240.389 75V77H242.389V75H240.389ZM240.389 79V81H242.389V79H240.389ZM240.389 83V84H242.389V83H240.389ZM241.389 85H242.481V83H241.389V85ZM244.665 85H246.849V83H244.665V85ZM249.033 85H251.217V83H249.033V85ZM253.401 85H255.585V83H253.401V85ZM257.769 85H259.953V83H257.769V85ZM262.137 85H263.229V83H262.137V85ZM264.229 84V82.9762H262.229V84H264.229ZM264.229 80.9287V78.8812H262.229V80.9287H264.229ZM264.229 76.8337V74.7862H262.229V76.8337H264.229ZM264.229 72.7387V70.6912H262.229V72.7387H264.229ZM264.229 68.6437V66.5962H262.229V68.6437H264.229ZM264.229 64.5487V62.5012H262.229V64.5487H264.229ZM264.229 60.4537V58.4062H262.229V60.4537H264.229ZM264.229 56.3587V54.3112H262.229V56.3587H264.229ZM264.229 52.2637V51.24H262.229V52.2637H264.229ZM263.229 52.24H264.257V50.24H263.229V52.24ZM266.312 52.24H268.367V50.24H266.312V52.24ZM270.422 52.24H272.477V50.24H270.422V52.24ZM274.532 52.24H276.587V50.24H274.532V52.24ZM278.642 52.24H280.697V50.24H278.642V52.24ZM282.752 52.24H284.807V50.24H282.752V52.24ZM286.862 52.24H288.917V50.24H286.862V52.24ZM290.972 52.24H293.027V50.24H290.972V52.24ZM295.082 52.24H297.137V50.24H295.082V52.24ZM299.192 52.24H301.247V50.24H299.192V52.24ZM303.302 52.24H305.357V50.24H303.302V52.24ZM307.412 52.24H309.467V50.24H307.412V52.24ZM311.522 52.24H313.577V50.24H311.522V52.24ZM315.632 52.24H317.687V50.24H315.632V52.24ZM319.742 52.24H321.797V50.24H319.742V52.24ZM323.852 52.24H325.907V50.24H323.852V52.24ZM327.962 52.24H328.989V50.24H327.962V52.24ZM327.989 51.24V52.2637H329.989V51.24H327.989ZM327.989 54.3112V56.3587H329.989V54.3112H327.989ZM327.989 58.4062V60.4537H329.989V58.4062H327.989ZM327.989 62.5013V64.5488H329.989V62.5013H327.989ZM327.989 66.5963V68.6438H329.989V66.5963H327.989ZM327.989 70.6913V72.7388H329.989V70.6913H327.989ZM327.989 74.7863V76.8338H329.989V74.7863H327.989ZM327.989 78.8813V80.9288H329.989V78.8813H327.989ZM327.989 82.9763V84H329.989V82.9763H327.989ZM328.989 85H330.087V83H328.989V85ZM332.283 85H334.479V83H332.283V85ZM336.675 85H338.871V83H336.675V85ZM341.067 85H343.263V83H341.067V85ZM345.459 85H347.655V83H345.459V85ZM349.851 85H350.949V83H349.851V85ZM351.949 84V83H349.949V84H351.949ZM351.949 81V79H349.949V81H351.949ZM351.949 77V75H349.949V77H351.949ZM351.949 73V71H349.949V73H351.949ZM351.949 69V67H349.949V69H351.949ZM351.949 65V63H349.949V65H351.949ZM351.949 61V59H349.949V61H351.949ZM351.949 57V55H349.949V57H351.949ZM351.949 53V51H349.949V53H351.949ZM351.949 49V47H349.949V49H351.949ZM351.949 45V43H349.949V45H351.949ZM351.949 41V39H349.949V41H351.949ZM351.949 37V35H349.949V37H351.949ZM351.949 33V31H349.949V33H351.949ZM351.949 29V27H349.949V29H351.949ZM351.949 25V23H349.949V25H351.949ZM351.949 21V19H349.949V21H351.949ZM351.949 17V15H349.949V17H351.949ZM351.949 13V11H349.949V13H351.949ZM351.949 9V6.99999H349.949V9H351.949ZM351.949 5V2.99999H349.949V5H351.949ZM351.949 0.999996V-5.72205e-06H349.949V0.999996H351.949ZM350.949 -1.00001H349.851V0.999994H350.949V-1.00001ZM347.655 -1.00001H345.459V0.999994H347.655V-1.00001ZM343.263 -1.00001H341.067V0.999994H343.263V-1.00001ZM338.871 -1.00001H336.675V0.999994H338.871V-1.00001ZM334.479 -1.00001H332.283V0.999994H334.479V-1.00001ZM330.087 -1.00001H328.989V0.999994H330.087V-1.00001ZM328.989 -5.72205e-06V-2.00001H326.989V-5.72205e-06H328.989ZM350.949 -5.72205e-06H352.949V-2.00001H350.949V-5.72205e-06ZM350.949 84V86H352.949V84H350.949ZM328.989 84H326.989V86H328.989V84ZM328.989 51.24H330.989V49.24H328.989V51.24ZM263.229 51.24V49.24H261.229V51.24H263.229ZM263.229 84V86H265.229V84H263.229ZM241.389 84H239.389V86H241.389V84ZM241.389 -5.72205e-06V-2.00001H239.389V-5.72205e-06H241.389ZM263.229 -5.72205e-06H265.229V-2.00001H263.229V-5.72205e-06ZM263.229 29.28H261.229V31.28H263.229V29.28ZM328.989 29.28V31.28H330.989V29.28H328.989ZM326.989 -5.72205e-06V1.04571H330.989V-5.72205e-06H326.989ZM326.989 3.13714V5.22857H330.989V3.13714H326.989ZM326.989 7.31999V9.41142H330.989V7.31999H326.989ZM326.989 11.5029V13.5943H330.989V11.5029H326.989ZM326.989 15.6857V17.7771H330.989V15.6857H326.989ZM326.989 19.8686V21.96H330.989V19.8686H326.989ZM326.989 24.0514V26.1429H330.989V24.0514H326.989ZM326.989 28.2343V29.28H330.989V28.2343H326.989ZM328.989 27.28H327.962V31.28H328.989V27.28ZM325.907 27.28H323.852V31.28H325.907V27.28ZM321.797 27.28H319.742V31.28H321.797V27.28ZM317.687 27.28H315.632V31.28H317.687V27.28ZM313.577 27.28H311.522V31.28H313.577V27.28ZM309.467 27.28H307.412V31.28H309.467V27.28ZM305.357 27.28H303.302V31.28H305.357V27.28ZM301.247 27.28H299.192V31.28H301.247V27.28ZM297.137 27.28H295.082V31.28H297.137V27.28ZM293.027 27.28H290.972V31.28H293.027V27.28ZM288.917 27.28H286.862V31.28H288.917V27.28ZM284.807 27.28H282.752V31.28H284.807V27.28ZM280.697 27.28H278.642V31.28H280.697V27.28ZM276.587 27.28H274.532V31.28H276.587V27.28ZM272.477 27.28H270.422V31.28H272.477V27.28ZM268.367 27.28H266.312V31.28H268.367V27.28ZM264.257 27.28H263.229V31.28H264.257V27.28ZM265.229 29.28V28.2343H261.229V29.28H265.229ZM265.229 26.1429V24.0514H261.229V26.1429H265.229ZM265.229 21.96V19.8686H261.229V21.96H265.229ZM265.229 17.7771V15.6857H261.229V17.7771H265.229ZM265.229 13.5943V11.5029H261.229V13.5943H265.229ZM265.229 9.41142V7.31999H261.229V9.41142H265.229ZM265.229 5.22857V3.13714H261.229V5.22857H265.229ZM265.229 1.04571V-5.72205e-06H261.229V1.04571H265.229ZM263.229 -2.00001H262.137V1.99999H263.229V-2.00001ZM259.953 -2.00001H257.769V1.99999H259.953V-2.00001ZM255.585 -2.00001H253.401V1.99999H255.585V-2.00001ZM251.217 -2.00001H249.033V1.99999H251.217V-2.00001ZM246.849 -2.00001H244.665V1.99999H246.849V-2.00001ZM242.481 -2.00001H241.389V1.99999H242.481V-2.00001ZM239.389 -5.72205e-06V0.999994H243.389V-5.72205e-06H239.389ZM239.389 2.99999V5H243.389V2.99999H239.389ZM239.389 6.99999V8.99999H243.389V6.99999H239.389ZM239.389 11V13H243.389V11H239.389ZM239.389 15V17H243.389V15H239.389ZM239.389 19V21H243.389V19H239.389ZM239.389 23V25H243.389V23H239.389ZM239.389 27V29H243.389V27H239.389ZM239.389 31V33H243.389V31H239.389ZM239.389 35V37H243.389V35H239.389ZM239.389 39V41H243.389V39H239.389ZM239.389 43V45H243.389V43H239.389ZM239.389 47V49H243.389V47H239.389ZM239.389 51V53H243.389V51H239.389ZM239.389 55V57H243.389V55H239.389ZM239.389 59V61H243.389V59H239.389ZM239.389 63V65H243.389V63H239.389ZM239.389 67V69H243.389V67H239.389ZM239.389 71V73H243.389V71H239.389ZM239.389 75V77H243.389V75H239.389ZM239.389 79V81H243.389V79H239.389ZM239.389 83V84H243.389V83H239.389ZM241.389 86H242.481V82H241.389V86ZM244.665 86H246.849V82H244.665V86ZM249.033 86H251.217V82H249.033V86ZM253.401 86H255.585V82H253.401V86ZM257.769 86H259.953V82H257.769V86ZM262.137 86H263.229V82H262.137V86ZM265.229 84V82.9762H261.229V84H265.229ZM265.229 80.9287V78.8812H261.229V80.9287H265.229ZM265.229 76.8337V74.7862H261.229V76.8337H265.229ZM265.229 72.7387V70.6912H261.229V72.7387H265.229ZM265.229 68.6437V66.5962H261.229V68.6437H265.229ZM265.229 64.5487V62.5012H261.229V64.5487H265.229ZM265.229 60.4537V58.4062H261.229V60.4537H265.229ZM265.229 56.3587V54.3112H261.229V56.3587H265.229ZM265.229 52.2637V51.24H261.229V52.2637H265.229ZM263.229 53.24H264.257V49.24H263.229V53.24ZM266.312 53.24H268.367V49.24H266.312V53.24ZM270.422 53.24H272.477V49.24H270.422V53.24ZM274.532 53.24H276.587V49.24H274.532V53.24ZM278.642 53.24H280.697V49.24H278.642V53.24ZM282.752 53.24H284.807V49.24H282.752V53.24ZM286.862 53.24H288.917V49.24H286.862V53.24ZM290.972 53.24H293.027V49.24H290.972V53.24ZM295.082 53.24H297.137V49.24H295.082V53.24ZM299.192 53.24H301.247V49.24H299.192V53.24ZM303.302 53.24H305.357V49.24H303.302V53.24ZM307.412 53.24H309.467V49.24H307.412V53.24ZM311.522 53.24H313.577V49.24H311.522V53.24ZM315.632 53.24H317.687V49.24H315.632V53.24ZM319.742 53.24H321.797V49.24H319.742V53.24ZM323.852 53.24H325.907V49.24H323.852V53.24ZM327.962 53.24H328.989V49.24H327.962V53.24ZM326.989 51.24V52.2637H330.989V51.24H326.989ZM326.989 54.3112V56.3587H330.989V54.3112H326.989ZM326.989 58.4062V60.4537H330.989V58.4062H326.989ZM326.989 62.5013V64.5488H330.989V62.5013H326.989ZM326.989 66.5963V68.6438H330.989V66.5963H326.989ZM326.989 70.6913V72.7388H330.989V70.6913H326.989ZM326.989 74.7863V76.8338H330.989V74.7863H326.989ZM326.989 78.8813V80.9288H330.989V78.8813H326.989ZM326.989 82.9763V84H330.989V82.9763H326.989ZM328.989 86H330.087V82H328.989V86ZM332.283 86H334.479V82H332.283V86ZM336.675 86H338.871V82H336.675V86ZM341.067 86H343.263V82H341.067V86ZM345.459 86H347.655V82H345.459V86ZM349.851 86H350.949V82H349.851V86ZM352.949 84V83H348.949V84H352.949ZM352.949 81V79H348.949V81H352.949ZM352.949 77V75H348.949V77H352.949ZM352.949 73V71H348.949V73H352.949ZM352.949 69V67H348.949V69H352.949ZM352.949 65V63H348.949V65H352.949ZM352.949 61V59H348.949V61H352.949ZM352.949 57V55H348.949V57H352.949ZM352.949 53V51H348.949V53H352.949ZM352.949 49V47H348.949V49H352.949ZM352.949 45V43H348.949V45H352.949ZM352.949 41V39H348.949V41H352.949ZM352.949 37V35H348.949V37H352.949ZM352.949 33V31H348.949V33H352.949ZM352.949 29V27H348.949V29H352.949ZM352.949 25V23H348.949V25H352.949ZM352.949 21V19H348.949V21H352.949ZM352.949 17V15H348.949V17H352.949ZM352.949 13V11H348.949V13H352.949ZM352.949 9V6.99999H348.949V9H352.949ZM352.949 5V2.99999H348.949V5H352.949ZM352.949 0.999996V-5.72205e-06H348.949V0.999996H352.949ZM350.949 -2.00001H349.851V1.99999H350.949V-2.00001ZM347.655 -2.00001H345.459V1.99999H347.655V-2.00001ZM343.263 -2.00001H341.067V1.99999H343.263V-2.00001ZM338.871 -2.00001H336.675V1.99999H338.871V-2.00001ZM334.479 -2.00001H332.283V1.99999H334.479V-2.00001ZM330.087 -2.00001H328.989V1.99999H330.087V-2.00001ZM445.828 -5.72205e-06L446.773 -0.327951L446.539 -1.00001H445.828V-5.72205e-06ZM474.988 84V85H476.394L475.933 83.6721L474.988 84ZM451.228 84L450.283 84.3271L450.516 85H451.228V84ZM443.668 62.16L444.613 61.8329L444.38 61.16H443.668V62.16ZM382.228 62.16V61.16H381.519L381.284 61.8283L382.228 62.16ZM374.548 84V85H375.256L375.491 84.3317L374.548 84ZM350.908 84L349.963 83.6721L349.502 85H350.908V84ZM380.068 -5.72205e-06V-1.00001H379.356L379.123 -0.32795L380.068 -5.72205e-06ZM389.788 40.2L388.844 39.8708L388.38 41.2H389.788V40.2ZM435.988 40.2V41.2H437.396L436.932 39.8708L435.988 40.2ZM429.628 21.96L430.572 21.6308L430.338 20.96H429.628V21.96ZM396.148 21.96V20.96H395.437L395.204 21.6308L396.148 21.96ZM445.828 -1.00001H444.8V0.999994H445.828V-1.00001ZM442.745 -1.00001H440.69V0.999994H442.745V-1.00001ZM438.635 -1.00001H436.58V0.999994H438.635V-1.00001ZM434.525 -1.00001H432.47V0.999994H434.525V-1.00001ZM430.415 -1.00001H428.36V0.999994H430.415V-1.00001ZM426.305 -1.00001H424.25V0.999994H426.305V-1.00001ZM422.195 -1.00001H420.14V0.999994H422.195V-1.00001ZM418.085 -1.00001H416.03V0.999994H418.085V-1.00001ZM413.975 -1.00001H411.92V0.999994H413.975V-1.00001ZM409.865 -1.00001H407.81V0.999994H409.865V-1.00001ZM405.755 -1.00001H403.7V0.999994H405.755V-1.00001ZM401.645 -1.00001H399.59V0.999994H401.645V-1.00001ZM397.535 -1.00001H395.48V0.999994H397.535V-1.00001ZM393.425 -1.00001H391.37V0.999994H393.425V-1.00001ZM389.315 -1.00001H387.26V0.999994H389.315V-1.00001ZM385.205 -1.00001H383.15V0.999994H385.205V-1.00001ZM381.095 -1.00001H380.068V0.999994H381.095V-1.00001ZM379.123 -0.32795L378.792 0.626595L380.681 1.28248L381.013 0.327939L379.123 -0.32795ZM378.129 2.53569L377.466 4.44478L379.356 5.10067L380.018 3.19158L378.129 2.53569ZM376.804 6.35387L376.141 8.26296L378.03 8.91885L378.693 7.00976L376.804 6.35387ZM375.478 10.1721L374.815 12.0811L376.705 12.737L377.368 10.8279L375.478 10.1721ZM374.153 13.9902L373.49 15.8993L375.379 16.5552L376.042 14.6461L374.153 13.9902ZM372.827 17.8084L372.164 19.7175L374.054 20.3734L374.717 18.4643L372.827 17.8084ZM371.502 21.6266L370.839 23.5357L372.728 24.1916L373.391 22.2825L371.502 21.6266ZM370.176 25.4448L369.514 27.3539L371.403 28.0098L372.066 26.1007L370.176 25.4448ZM368.851 29.263L368.188 31.1721L370.078 31.8279L370.74 29.9189L368.851 29.263ZM367.525 33.0812L366.863 34.9902L368.752 35.6461L369.415 33.737L367.525 33.0812ZM366.2 36.8993L365.537 38.8084L367.427 39.4643L368.089 37.5552L366.2 36.8993ZM364.874 40.7175L364.212 42.6266L366.101 43.2825L366.764 41.3734L364.874 40.7175ZM363.549 44.5357L362.886 46.4448L364.776 47.1007L365.438 45.1916L363.549 44.5357ZM362.224 48.3539L361.561 50.263L363.45 50.9189L364.113 49.0098L362.224 48.3539ZM360.898 52.1721L360.235 54.0812L362.125 54.7371L362.788 52.828L360.898 52.1721ZM359.573 55.9903L358.91 57.8993L360.799 58.5552L361.462 56.6461L359.573 55.9903ZM358.247 59.8084L357.584 61.7175L359.474 62.3734L360.137 60.4643L358.247 59.8084ZM356.922 63.6266L356.259 65.5357L358.148 66.1916L358.811 64.2825L356.922 63.6266ZM355.596 67.4448L354.934 69.3539L356.823 70.0098L357.486 68.1007L355.596 67.4448ZM354.271 71.263L353.608 73.1721L355.498 73.828L356.16 71.9189L354.271 71.263ZM352.945 75.0812L352.283 76.9903L354.172 77.6461L354.835 75.7371L352.945 75.0812ZM351.62 78.8994L350.957 80.8084L352.847 81.4643L353.509 79.5552L351.62 78.8994ZM350.294 82.7175L349.963 83.6721L351.853 84.3279L352.184 83.3734L350.294 82.7175ZM350.908 85H351.893V83H350.908V85ZM353.863 85H355.833V83H353.863V85ZM357.803 85H359.773V83H357.803V85ZM361.743 85H363.713V83H361.743V85ZM365.683 85H367.653V83H365.683V85ZM369.623 85H371.593V83H369.623V85ZM373.563 85H374.548V83H373.563V85ZM375.491 84.3317L375.811 83.4217L373.924 82.7583L373.604 83.6683L375.491 84.3317ZM376.451 81.6017L377.091 79.7817L375.204 79.1183L374.564 80.9383L376.451 81.6017ZM377.731 77.9617L378.371 76.1417L376.484 75.4783L375.844 77.2983L377.731 77.9617ZM379.011 74.3217L379.651 72.5017L377.764 71.8383L377.124 73.6583L379.011 74.3217ZM380.291 70.6817L380.931 68.8617L379.044 68.1983L378.404 70.0183L380.291 70.6817ZM381.571 67.0417L382.211 65.2217L380.324 64.5583L379.684 66.3783L381.571 67.0417ZM382.851 63.4017L383.171 62.4917L381.284 61.8283L380.964 62.7383L382.851 63.4017ZM382.228 63.16H383.252V61.16H382.228V63.16ZM385.3 63.16H387.348V61.16H385.3V63.16ZM389.396 63.16H391.444V61.16H389.396V63.16ZM393.492 63.16H395.54V61.16H393.492V63.16ZM397.588 63.16H399.636V61.16H397.588V63.16ZM401.684 63.16H403.732V61.16H401.684V63.16ZM405.78 63.16H407.828V61.16H405.78V63.16ZM409.876 63.16H411.924V61.16H409.876V63.16ZM413.972 63.16H416.02V61.16H413.972V63.16ZM418.068 63.16H420.116V61.16H418.068V63.16ZM422.164 63.16H424.212V61.16H422.164V63.16ZM426.26 63.16H428.308V61.16H426.26V63.16ZM430.356 63.16H432.404V61.16H430.356V63.16ZM434.452 63.16H436.5V61.16H434.452V63.16ZM438.548 63.16H440.596V61.16H438.548V63.16ZM442.644 63.16H443.668V61.16H442.644V63.16ZM442.723 62.4871L443.038 63.3971L444.928 62.7429L444.613 61.8329L442.723 62.4871ZM443.668 65.2171L444.298 67.0371L446.188 66.3829L445.558 64.5629L443.668 65.2171ZM444.928 68.8571L445.558 70.6771L447.448 70.0229L446.818 68.2029L444.928 68.8571ZM446.188 72.4971L446.818 74.3171L448.708 73.6629L448.078 71.8429L446.188 72.4971ZM447.448 76.1371L448.078 77.9571L449.968 77.3029L449.338 75.4829L447.448 76.1371ZM448.708 79.7771L449.338 81.5971L451.228 80.9429L450.598 79.1229L448.708 79.7771ZM449.968 83.4171L450.283 84.3271L452.173 83.6729L451.858 82.7629L449.968 83.4171ZM451.228 85H452.218V83H451.228V85ZM454.198 85H456.178V83H454.198V85ZM458.158 85H460.138V83H458.158V85ZM462.118 85H464.098V83H462.118V85ZM466.078 85H468.058V83H466.078V85ZM470.038 85H472.018V83H470.038V85ZM473.998 85H474.988V83H473.998V85ZM475.933 83.6721L475.601 82.7175L473.712 83.3734L474.043 84.3279L475.933 83.6721ZM474.938 80.8084L474.276 78.8993L472.386 79.5552L473.049 81.4643L474.938 80.8084ZM473.613 76.9902L472.95 75.0811L471.061 75.737L471.724 77.6461L473.613 76.9902ZM472.288 73.1721L471.625 71.263L469.735 71.9189L470.398 73.8279L472.288 73.1721ZM470.962 69.3539L470.299 67.4448L468.41 68.1007L469.073 70.0098L470.962 69.3539ZM469.637 65.5357L468.974 63.6266L467.084 64.2825L467.747 66.1916L469.637 65.5357ZM468.311 61.7175L467.648 59.8084L465.759 60.4643L466.422 62.3734L468.311 61.7175ZM466.986 57.8993L466.323 55.9902L464.434 56.6461L465.096 58.5552L466.986 57.8993ZM465.66 54.0811L464.998 52.172L463.108 52.8279L463.771 54.737L465.66 54.0811ZM464.335 50.263L463.672 48.3539L461.783 49.0098L462.445 50.9188L464.335 50.263ZM463.009 46.4448L462.347 44.5357L460.457 45.1916L461.12 47.1007L463.009 46.4448ZM461.684 42.6266L461.021 40.7175L459.132 41.3734L459.794 43.2825L461.684 42.6266ZM460.358 38.8084L459.696 36.8993L457.806 37.5552L458.469 39.4643L460.358 38.8084ZM459.033 34.9902L458.37 33.0811L456.481 33.737L457.144 35.6461L459.033 34.9902ZM457.708 31.172L457.045 29.2629L455.155 29.9188L455.818 31.8279L457.708 31.172ZM456.382 27.3539L455.719 25.4448L453.83 26.1006L454.493 28.0097L456.382 27.3539ZM455.057 23.5357L454.394 21.6266L452.504 22.2825L453.167 24.1916L455.057 23.5357ZM453.731 19.7175L453.068 17.8084L451.179 18.4643L451.842 20.3734L453.731 19.7175ZM452.406 15.8993L451.743 13.9902L449.854 14.6461L450.516 16.5552L452.406 15.8993ZM451.08 12.0811L450.418 10.172L448.528 10.8279L449.191 12.737L451.08 12.0811ZM449.755 8.26294L449.092 6.35385L447.203 7.00974L447.865 8.91883L449.755 8.26294ZM448.429 4.44475L447.767 2.53566L445.877 3.19155L446.54 5.10064L448.429 4.44475ZM447.104 0.626569L446.773 -0.327951L444.883 0.327939L445.214 1.28246L447.104 0.626569ZM390.732 40.5292L391.05 39.6172L389.162 38.9588L388.844 39.8708L390.732 40.5292ZM391.686 37.7932L392.322 35.9692L390.434 35.3108L389.798 37.1348L391.686 37.7932ZM392.958 34.1452L393.594 32.3212L391.706 31.6628L391.07 33.4868L392.958 34.1452ZM394.23 30.4972L394.866 28.6732L392.978 28.0148L392.342 29.8388L394.23 30.4972ZM395.502 26.8492L396.138 25.0252L394.25 24.3668L393.614 26.1908L395.502 26.8492ZM396.774 23.2012L397.092 22.2892L395.204 21.6308L394.886 22.5428L396.774 23.2012ZM396.148 22.96H397.194V20.96H396.148V22.96ZM399.287 22.96H401.379V20.96H399.287V22.96ZM403.472 22.96H405.564V20.96H403.472V22.96ZM407.657 22.96H409.749V20.96H407.657V22.96ZM411.842 22.96H413.934V20.96H411.842V22.96ZM416.027 22.96H418.119V20.96H416.027V22.96ZM420.212 22.96H422.304V20.96H420.212V22.96ZM424.397 22.96H426.489V20.96H424.397V22.96ZM428.582 22.96H429.628V20.96H428.582V22.96ZM428.684 22.2892L429.002 23.2012L430.89 22.5428L430.572 21.6308L428.684 22.2892ZM429.638 25.0252L430.274 26.8492L432.162 26.1908L431.526 24.3668L429.638 25.0252ZM430.91 28.6732L431.546 30.4972L433.434 29.8388L432.798 28.0148L430.91 28.6732ZM432.182 32.3212L432.818 34.1452L434.706 33.4868L434.07 31.6628L432.182 32.3212ZM433.454 35.9692L434.09 37.7932L435.978 37.1348L435.342 35.3108L433.454 35.9692ZM434.726 39.6172L435.044 40.5292L436.932 39.8708L436.614 38.9588L434.726 39.6172ZM435.988 39.2H435.025V41.2H435.988V39.2ZM433.1 39.2H431.175V41.2H433.1V39.2ZM429.25 39.2H427.325V41.2H429.25V39.2ZM425.4 39.2H423.475V41.2H425.4V39.2ZM421.55 39.2H419.625V41.2H421.55V39.2ZM417.7 39.2H415.775V41.2H417.7V39.2ZM413.85 39.2H411.925V41.2H413.85V39.2ZM410 39.2H408.075V41.2H410V39.2ZM406.15 39.2H404.225V41.2H406.15V39.2ZM402.3 39.2H400.375V41.2H402.3V39.2ZM398.45 39.2H396.525V41.2H398.45V39.2ZM394.6 39.2H392.675V41.2H394.6V39.2ZM390.75 39.2H389.788V41.2H390.75V39.2ZM445.828 -5.72205e-06L447.717 -0.655895L447.251 -2.00001H445.828V-5.72205e-06ZM474.988 84V86H477.799L476.877 83.3441L474.988 84ZM451.228 84L449.338 84.6542L449.804 86H451.228V84ZM443.668 62.16L445.558 61.5058L445.092 60.16H443.668V62.16ZM382.228 62.16V60.16H380.811L380.341 61.4965L382.228 62.16ZM374.548 84V86H375.965L376.435 84.6635L374.548 84ZM350.908 84L349.018 83.3441L348.096 86H350.908V84ZM380.068 -5.72205e-06V-2.00001H378.645L378.178 -0.655895L380.068 -5.72205e-06ZM389.788 40.2L387.899 39.5415L386.972 42.2H389.788V40.2ZM435.988 40.2V42.2H438.803L437.876 39.5415L435.988 40.2ZM429.628 21.96L431.516 21.3015L431.049 19.96H429.628V21.96ZM396.148 21.96V19.96H394.727L394.259 21.3015L396.148 21.96ZM445.828 -2.00001H444.8V1.99999H445.828V-2.00001ZM442.745 -2.00001H440.69V1.99999H442.745V-2.00001ZM438.635 -2.00001H436.58V1.99999H438.635V-2.00001ZM434.525 -2.00001H432.47V1.99999H434.525V-2.00001ZM430.415 -2.00001H428.36V1.99999H430.415V-2.00001ZM426.305 -2.00001H424.25V1.99999H426.305V-2.00001ZM422.195 -2.00001H420.14V1.99999H422.195V-2.00001ZM418.085 -2.00001H416.03V1.99999H418.085V-2.00001ZM413.975 -2.00001H411.92V1.99999H413.975V-2.00001ZM409.865 -2.00001H407.81V1.99999H409.865V-2.00001ZM405.755 -2.00001H403.7V1.99999H405.755V-2.00001ZM401.645 -2.00001H399.59V1.99999H401.645V-2.00001ZM397.535 -2.00001H395.48V1.99999H397.535V-2.00001ZM393.425 -2.00001H391.37V1.99999H393.425V-2.00001ZM389.315 -2.00001H387.26V1.99999H389.315V-2.00001ZM385.205 -2.00001H383.15V1.99999H385.205V-2.00001ZM381.095 -2.00001H380.068V1.99999H381.095V-2.00001ZM378.178 -0.655895L377.847 0.29865L381.626 1.61043L381.957 0.655884L378.178 -0.655895ZM377.184 2.20774L376.522 4.11683L380.3 5.42861L380.963 3.51952L377.184 2.20774ZM375.859 6.02592L375.196 7.93501L378.975 9.24679L379.638 7.3377L375.859 6.02592ZM374.533 9.84411L373.871 11.7532L377.649 13.065L378.312 11.1559L374.533 9.84411ZM373.208 13.6623L372.545 15.5714L376.324 16.8832L376.987 14.9741L373.208 13.6623ZM371.883 17.4805L371.22 19.3896L374.999 20.7013L375.661 18.7922L371.883 17.4805ZM370.557 21.2987L369.894 23.2077L373.673 24.5195L374.336 22.6104L370.557 21.2987ZM369.232 25.1168L368.569 27.0259L372.348 28.3377L373.01 26.4286L369.232 25.1168ZM367.906 28.935L367.243 30.8441L371.022 32.1559L371.685 30.2468L367.906 28.935ZM366.581 32.7532L365.918 34.6623L369.697 35.9741L370.359 34.065L366.581 32.7532ZM365.255 36.5714L364.593 38.4805L368.371 39.7923L369.034 37.8832L365.255 36.5714ZM363.93 40.3896L363.267 42.2987L367.046 43.6104L367.709 41.7014L363.93 40.3896ZM362.604 44.2078L361.942 46.1168L365.72 47.4286L366.383 45.5195L362.604 44.2078ZM361.279 48.0259L360.616 49.935L364.395 51.2468L365.058 49.3377L361.279 48.0259ZM359.953 51.8441L359.291 53.7532L363.069 55.065L363.732 53.1559L359.953 51.8441ZM358.628 55.6623L357.965 57.5714L361.744 58.8832L362.407 56.9741L358.628 55.6623ZM357.303 59.4805L356.64 61.3896L360.419 62.7014L361.081 60.7923L357.303 59.4805ZM355.977 63.2987L355.314 65.2078L359.093 66.5195L359.756 64.6105L355.977 63.2987ZM354.652 67.1169L353.989 69.0259L357.768 70.3377L358.43 68.4286L354.652 67.1169ZM353.326 70.935L352.663 72.8441L356.442 74.1559L357.105 72.2468L353.326 70.935ZM352.001 74.7532L351.338 76.6623L355.117 77.9741L355.779 76.065L352.001 74.7532ZM350.675 78.5714L350.013 80.4805L353.791 81.7923L354.454 79.8832L350.675 78.5714ZM349.35 82.3896L349.018 83.3441L352.797 84.6559L353.129 83.7014L349.35 82.3896ZM350.908 86H351.893V82H350.908V86ZM353.863 86H355.833V82H353.863V86ZM357.803 86H359.773V82H357.803V86ZM361.743 86H363.713V82H361.743V86ZM365.683 86H367.653V82H365.683V86ZM369.623 86H371.593V82H369.623V86ZM373.563 86H374.548V82H373.563V86ZM376.435 84.6635L376.755 83.7535L372.981 82.4265L372.661 83.3365L376.435 84.6635ZM377.395 81.9335L378.035 80.1135L374.261 78.7865L373.621 80.6065L377.395 81.9335ZM378.675 78.2935L379.315 76.4735L375.541 75.1465L374.901 76.9665L378.675 78.2935ZM379.955 74.6535L380.595 72.8335L376.821 71.5065L376.181 73.3265L379.955 74.6535ZM381.235 71.0135L381.875 69.1935L378.101 67.8665L377.461 69.6865L381.235 71.0135ZM382.515 67.3735L383.155 65.5535L379.381 64.2265L378.741 66.0465L382.515 67.3735ZM383.795 63.7335L384.115 62.8235L380.341 61.4965L380.021 62.4065L383.795 63.7335ZM382.228 64.16H383.252V60.16H382.228V64.16ZM385.3 64.16H387.348V60.16H385.3V64.16ZM389.396 64.16H391.444V60.16H389.396V64.16ZM393.492 64.16H395.54V60.16H393.492V64.16ZM397.588 64.16H399.636V60.16H397.588V64.16ZM401.684 64.16H403.732V60.16H401.684V64.16ZM405.78 64.16H407.828V60.16H405.78V64.16ZM409.876 64.16H411.924V60.16H409.876V64.16ZM413.972 64.16H416.02V60.16H413.972V64.16ZM418.068 64.16H420.116V60.16H418.068V64.16ZM422.164 64.16H424.212V60.16H422.164V64.16ZM426.26 64.16H428.308V60.16H426.26V64.16ZM430.356 64.16H432.404V60.16H430.356V64.16ZM434.452 64.16H436.5V60.16H434.452V64.16ZM438.548 64.16H440.596V60.16H438.548V64.16ZM442.644 64.16H443.668V60.16H442.644V64.16ZM441.778 62.8142L442.093 63.7242L445.873 62.4158L445.558 61.5058L441.778 62.8142ZM442.723 65.5442L443.353 67.3642L447.133 66.0558L446.503 64.2358L442.723 65.5442ZM443.983 69.1842L444.613 71.0042L448.393 69.6958L447.763 67.8758L443.983 69.1842ZM445.243 72.8242L445.873 74.6442L449.653 73.3358L449.023 71.5158L445.243 72.8242ZM446.503 76.4642L447.133 78.2842L450.913 76.9758L450.283 75.1558L446.503 76.4642ZM447.763 80.1042L448.393 81.9242L452.173 80.6158L451.543 78.7958L447.763 80.1042ZM449.023 83.7442L449.338 84.6542L453.118 83.3458L452.803 82.4358L449.023 83.7442ZM451.228 86H452.218V82H451.228V86ZM454.198 86H456.178V82H454.198V86ZM458.158 86H460.138V82H458.158V86ZM462.118 86H464.098V82H462.118V86ZM466.078 86H468.058V82H466.078V86ZM470.038 86H472.018V82H470.038V86ZM473.998 86H474.988V82H473.998V86ZM476.877 83.3441L476.546 82.3896L472.767 83.7013L473.098 84.6559L476.877 83.3441ZM475.883 80.4805L475.22 78.5714L471.442 79.8832L472.104 81.7923L475.883 80.4805ZM474.558 76.6623L473.895 74.7532L470.116 76.065L470.779 77.9741L474.558 76.6623ZM473.232 72.8441L472.569 70.935L468.791 72.2468L469.453 74.1559L473.232 72.8441ZM471.907 69.0259L471.244 67.1168L467.465 68.4286L468.128 70.3377L471.907 69.0259ZM470.581 65.2077L469.919 63.2987L466.14 64.6104L466.803 66.5195L470.581 65.2077ZM469.256 61.3896L468.593 59.4805L464.814 60.7922L465.477 62.7013L469.256 61.3896ZM467.93 57.5714L467.268 55.6623L463.489 56.9741L464.152 58.8832L467.93 57.5714ZM466.605 53.7532L465.942 51.8441L462.163 53.1559L462.826 55.065L466.605 53.7532ZM465.279 49.935L464.617 48.0259L460.838 49.3377L461.501 51.2468L465.279 49.935ZM463.954 46.1168L463.291 44.2077L459.513 45.5195L460.175 47.4286L463.954 46.1168ZM462.629 42.2986L461.966 40.3896L458.187 41.7013L458.85 43.6104L462.629 42.2986ZM461.303 38.4805L460.64 36.5714L456.862 37.8831L457.524 39.7922L461.303 38.4805ZM459.978 34.6623L459.315 32.7532L455.536 34.065L456.199 35.9741L459.978 34.6623ZM458.652 30.8441L457.989 28.935L454.211 30.2468L454.873 32.1559L458.652 30.8441ZM457.327 27.0259L456.664 25.1168L452.885 26.4286L453.548 28.3377L457.327 27.0259ZM456.001 23.2077L455.339 21.2986L451.56 22.6104L452.223 24.5195L456.001 23.2077ZM454.676 19.3895L454.013 17.4805L450.234 18.7922L450.897 20.7013L454.676 19.3895ZM453.35 15.5714L452.688 13.6623L448.909 14.974L449.572 16.8831L453.35 15.5714ZM452.025 11.7532L451.362 9.84409L447.583 11.1559L448.246 13.065L452.025 11.7532ZM450.699 7.93499L450.037 6.0259L446.258 7.33768L446.921 9.24677L450.699 7.93499ZM449.374 4.11681L448.711 2.20772L444.933 3.5195L445.595 5.42859L449.374 4.11681ZM448.049 0.298624L447.717 -0.655895L443.938 0.655884L444.27 1.6104L448.049 0.298624ZM391.676 40.8585L391.994 39.9465L388.217 38.6295L387.899 39.5415L391.676 40.8585ZM392.63 38.1225L393.266 36.2985L389.489 34.9815L388.853 36.8055L392.63 38.1225ZM393.902 34.4745L394.538 32.6505L390.761 31.3335L390.125 33.1575L393.902 34.4745ZM395.174 30.8265L395.81 29.0025L392.033 27.6855L391.397 29.5095L395.174 30.8265ZM396.446 27.1785L397.082 25.3545L393.305 24.0375L392.669 25.8615L396.446 27.1785ZM397.718 23.5305L398.036 22.6185L394.259 21.3015L393.941 22.2135L397.718 23.5305ZM396.148 23.96H397.194V19.96H396.148V23.96ZM399.287 23.96H401.379V19.96H399.287V23.96ZM403.472 23.96H405.564V19.96H403.472V23.96ZM407.657 23.96H409.749V19.96H407.657V23.96ZM411.842 23.96H413.934V19.96H411.842V23.96ZM416.027 23.96H418.119V19.96H416.027V23.96ZM420.212 23.96H422.304V19.96H420.212V23.96ZM424.397 23.96H426.489V19.96H424.397V23.96ZM428.582 23.96H429.628V19.96H428.582V23.96ZM427.739 22.6185L428.057 23.5305L431.834 22.2135L431.516 21.3015L427.739 22.6185ZM428.693 25.3545L429.329 27.1785L433.106 25.8615L432.47 24.0375L428.693 25.3545ZM429.965 29.0025L430.601 30.8265L434.378 29.5095L433.742 27.6855L429.965 29.0025ZM431.237 32.6505L431.873 34.4745L435.65 33.1575L435.014 31.3335L431.237 32.6505ZM432.509 36.2985L433.145 38.1225L436.922 36.8055L436.286 34.9815L432.509 36.2985ZM433.781 39.9465L434.099 40.8585L437.876 39.5415L437.558 38.6295L433.781 39.9465ZM435.988 38.2H435.025V42.2H435.988V38.2ZM433.1 38.2H431.175V42.2H433.1V38.2ZM429.25 38.2H427.325V42.2H429.25V38.2ZM425.4 38.2H423.475V42.2H425.4V38.2ZM421.55 38.2H419.625V42.2H421.55V38.2ZM417.7 38.2H415.775V42.2H417.7V38.2ZM413.85 38.2H411.925V42.2H413.85V38.2ZM410 38.2H408.075V42.2H410V38.2ZM406.15 38.2H404.225V42.2H406.15V38.2ZM402.3 38.2H400.375V42.2H402.3V38.2ZM398.45 38.2H396.525V42.2H398.45V38.2ZM394.6 38.2H392.675V42.2H394.6V38.2ZM390.75 38.2H389.788V42.2H390.75V38.2ZM584.621 62.16H585.621V61.16H584.621V62.16ZM584.621 84V85H585.621V84H584.621ZM584.621 -5.72205e-06H585.621V-1.00001H584.621V-5.72205e-06ZM584.621 21.96V22.96H585.621V21.96H584.621ZM509.861 20.96C509.514 20.96 509.169 20.9683 508.826 20.9847L508.922 22.9824C509.233 22.9675 509.546 22.96 509.861 22.96V20.96ZM506.766 21.1833C506.078 21.2836 505.4 21.4169 504.734 21.5815L505.214 23.523C505.817 23.374 506.431 23.2533 507.054 23.1624L506.766 21.1833ZM502.751 22.1769C502.097 22.4088 501.458 22.6718 500.835 22.9641L501.685 24.7744C502.249 24.5099 502.827 24.2718 503.419 24.0619L502.751 22.1769ZM499.006 23.9351C498.412 24.2892 497.836 24.6714 497.281 25.08L498.467 26.6904C498.97 26.3203 499.491 25.9741 500.03 25.6535L499.006 23.9351ZM495.676 26.3875C495.163 26.8493 494.672 27.3359 494.206 27.8452L495.682 29.195C496.104 28.7337 496.548 28.2931 497.014 27.8747L495.676 26.3875ZM492.885 29.4394C492.472 29.9913 492.085 30.564 491.726 31.1556L493.437 32.1922C493.761 31.6568 494.111 31.1384 494.486 30.6387L492.885 29.4394ZM490.741 32.978C490.444 33.599 490.177 34.2367 489.941 34.8893L491.822 35.5688C492.035 34.9789 492.277 34.4023 492.546 33.8407L490.741 32.978ZM489.335 36.8709C489.167 37.5365 489.031 38.2144 488.929 38.9029L490.907 39.1969C491 38.5743 491.123 37.9615 491.274 37.36L489.335 36.8709ZM488.726 40.9646C488.709 41.3077 488.701 41.6529 488.701 42H490.701C490.701 41.6855 490.709 41.3729 490.724 41.0622L488.726 40.9646ZM488.701 42C488.701 42.348 488.709 42.694 488.726 43.0379L490.723 42.942C490.709 42.63 490.701 42.316 490.701 42H488.701ZM488.926 45.1051C489.027 45.7961 489.161 46.4762 489.327 47.1437L491.268 46.6614C491.118 46.0572 490.996 45.4415 490.905 44.8157L488.926 45.1051ZM489.927 49.1332C490.161 49.7891 490.426 50.4299 490.721 51.0538L492.529 50.1996C492.263 49.635 492.023 49.0552 491.811 48.4617L489.927 49.1332ZM491.7 52.8866C492.057 53.4822 492.442 54.0586 492.854 54.614L494.461 53.4223C494.087 52.9195 493.739 52.3976 493.415 51.8584L491.7 52.8866ZM494.172 56.2197C494.638 56.733 495.128 57.2232 495.641 57.6886L496.985 56.2068C496.52 55.7853 496.076 55.3413 495.654 54.8764L494.172 56.2197ZM497.247 59.0067C497.802 59.4187 498.379 59.8041 498.974 60.1611L500.003 58.4456C499.463 58.1224 498.941 57.7735 498.439 57.4004L497.247 59.0067ZM500.807 61.1401C501.431 61.4348 502.072 61.6999 502.728 61.9337L503.399 60.0498C502.806 59.8383 502.226 59.5984 501.661 59.3317L500.807 61.1401ZM504.717 62.5339C505.385 62.6997 506.065 62.834 506.756 62.9351L507.045 60.9561C506.419 60.8646 505.804 60.743 505.2 60.5929L504.717 62.5339ZM508.823 63.1351C509.167 63.1517 509.513 63.16 509.861 63.16V61.16C509.545 61.16 509.231 61.1524 508.919 61.1374L508.823 63.1351ZM509.861 63.16H510.845V61.16H509.861V63.16ZM512.812 63.16H514.779V61.16H512.812V63.16ZM516.747 63.16H518.714V61.16H516.747V63.16ZM520.681 63.16H522.649V61.16H520.681V63.16ZM524.616 63.16H526.584V61.16H524.616V63.16ZM528.551 63.16H530.518V61.16H528.551V63.16ZM532.486 63.16H534.453V61.16H532.486V63.16ZM536.42 63.16H538.388V61.16H536.42V63.16ZM540.355 63.16H542.323V61.16H540.355V63.16ZM544.29 63.16H546.257V61.16H544.29V63.16ZM548.225 63.16H550.192V61.16H548.225V63.16ZM552.159 63.16H554.127V61.16H552.159V63.16ZM556.094 63.16H558.061V61.16H556.094V63.16ZM560.029 63.16H561.996V61.16H560.029V63.16ZM563.964 63.16H565.931V61.16H563.964V63.16ZM567.898 63.16H569.866V61.16H567.898V63.16ZM571.833 63.16H573.8V61.16H571.833V63.16ZM575.768 63.16H577.735V61.16H575.768V63.16ZM579.703 63.16H581.67V61.16H579.703V63.16ZM583.637 63.16H584.621V61.16H583.637V63.16ZM583.621 62.16V63.252H585.621V62.16H583.621ZM583.621 65.436V67.62H585.621V65.436H583.621ZM583.621 69.804V71.988H585.621V69.804H583.621ZM583.621 74.172V76.356H585.621V74.172H583.621ZM583.621 78.54V80.724H585.621V78.54H583.621ZM583.621 82.908V84H585.621V82.908H583.621ZM584.621 83H583.637V85H584.621V83ZM581.67 83H579.703V85H581.67V83ZM577.735 83H575.768V85H577.735V83ZM573.8 83H571.833V85H573.8V83ZM569.866 83H567.898V85H569.866V83ZM565.931 83H563.964V85H565.931V83ZM561.996 83H560.029V85H561.996V83ZM558.061 83H556.094V85H558.061V83ZM554.127 83H552.159V85H554.127V83ZM550.192 83H548.225V85H550.192V83ZM546.257 83H544.29V85H546.257V83ZM542.323 83H540.355V85H542.323V83ZM538.388 83H536.42V85H538.388V83ZM534.453 83H532.486V85H534.453V83ZM530.518 83H528.551V85H530.518V83ZM526.584 83H524.616V85H526.584V83ZM522.649 83H520.681V85H522.649V83ZM518.714 83H516.747V85H518.714V83ZM514.779 83H512.812V85H514.779V83ZM510.845 83H509.861V85H510.845V83ZM509.861 83C509.524 83 509.187 82.9959 508.852 82.9878L508.803 84.9872C509.155 84.9957 509.507 85 509.861 85V83ZM506.842 82.89C506.17 82.8409 505.502 82.7755 504.839 82.6943L504.596 84.6794C505.291 84.7646 505.991 84.8332 506.696 84.8847L506.842 82.89ZM502.849 82.4003C502.186 82.2856 501.528 82.1549 500.876 82.0086L500.438 83.96C501.122 84.1135 501.813 84.2507 502.508 84.371L502.849 82.4003ZM498.925 81.5197C498.277 81.3401 497.635 81.1451 497 80.9348L496.372 82.8334C497.038 83.054 497.711 83.2587 498.391 83.4471L498.925 81.5197ZM495.107 80.2554C494.48 80.0129 493.861 79.7554 493.249 79.4833L492.436 81.3106C493.078 81.596 493.728 81.8662 494.385 82.1206L495.107 80.2554ZM491.432 78.6204C490.832 78.3175 490.241 78.0003 489.659 77.6692L488.67 79.4077C489.281 79.755 489.901 80.0877 490.53 80.4055L491.432 78.6204ZM487.935 76.632C487.368 76.2719 486.811 75.8983 486.263 75.5116L485.109 77.1453C485.684 77.5507 486.268 77.9425 486.862 78.3201L487.935 76.632ZM484.648 74.3109C484.12 73.8975 483.601 73.4713 483.094 73.0329L481.786 74.5465C482.319 75.0061 482.862 75.4529 483.416 75.8864L484.648 74.3109ZM481.603 71.6808C481.117 71.218 480.643 70.7435 480.18 70.2577L478.732 71.6371C479.217 72.1464 479.715 72.6439 480.224 73.129L481.603 71.6808ZM478.828 68.7671C478.39 68.2596 477.963 67.7413 477.55 67.2126L475.975 68.4447C476.408 68.999 476.855 69.5424 477.314 70.0745L478.828 68.7671ZM476.349 65.5977C475.963 65.0502 475.589 64.4928 475.229 63.9261L473.541 64.9987C473.918 65.593 474.31 66.1774 474.716 66.7515L476.349 65.5977ZM474.192 62.2019C473.861 61.6196 473.543 61.0285 473.241 60.429L471.455 61.331C471.773 61.9598 472.106 62.5798 472.453 63.1905L474.192 62.2019ZM472.378 58.6116C472.106 58 471.848 57.3807 471.606 56.7539L469.74 57.4757C469.995 58.1333 470.265 58.7831 470.55 59.4246L472.378 58.6116ZM470.926 54.8605C470.716 54.2256 470.521 53.584 470.341 52.9359L468.414 53.4698C468.602 54.1498 468.807 54.8231 469.027 55.4892L470.926 54.8605ZM469.852 50.9847C469.706 50.3327 469.575 49.6749 469.461 49.0116L467.49 49.3525C467.61 50.0483 467.747 50.7385 467.901 51.4226L469.852 50.9847ZM469.167 47.0215C469.085 46.3588 469.02 45.6913 468.971 45.0192L466.976 45.165C467.028 45.8697 467.096 46.5699 467.182 47.265L469.167 47.0215ZM468.873 43.0094C468.865 42.6739 468.861 42.3374 468.861 42H466.861C466.861 42.3536 466.865 42.7063 466.874 43.0579L468.873 43.0094ZM468.861 42C468.861 41.6629 468.865 41.3267 468.873 40.9914L466.874 40.9425C466.865 41.294 466.861 41.6465 466.861 42H468.861ZM468.972 38.9829C469.021 38.3114 469.087 37.6442 469.169 36.9818L467.184 36.7365C467.098 37.4315 467.029 38.1314 466.977 38.8358L468.972 38.9829ZM469.465 34.9931C469.581 34.3305 469.712 33.6732 469.859 33.0215L467.908 32.5809C467.754 33.2647 467.616 33.9545 467.495 34.6498L469.465 34.9931ZM470.351 31.0719C470.531 30.4245 470.727 29.7834 470.938 29.1489L469.041 28.5173C468.819 29.183 468.613 29.8558 468.424 30.5351L470.351 31.0719ZM471.62 27.2572C471.864 26.6312 472.122 26.0125 472.395 25.4014L470.569 24.5858C470.282 25.2268 470.011 25.8759 469.756 26.5327L471.62 27.2572ZM473.26 23.5857C473.563 22.9869 473.881 22.3963 474.213 21.8145L472.475 20.824C472.127 21.4341 471.794 22.0534 471.476 22.6815L473.26 23.5857ZM475.251 20.0918C475.612 19.5256 475.986 18.9687 476.373 18.4216L474.74 17.2667C474.334 17.8403 473.942 18.4242 473.564 19.0177L475.251 20.0918ZM477.574 16.8078C477.987 16.2794 478.414 15.7613 478.852 15.254L477.339 13.9464C476.879 14.4782 476.432 15.0212 475.999 15.575L477.574 16.8078ZM480.204 13.7639C480.666 13.2782 481.141 12.8037 481.626 12.3409L480.246 10.8932C479.737 11.3782 479.24 11.8755 478.755 12.3846L480.204 13.7639ZM483.116 10.9884C483.623 10.5499 484.141 10.1235 484.669 9.70978L483.436 8.1353C482.882 8.56903 482.339 9.01596 481.807 9.4756L483.116 10.9884ZM486.282 8.50809C486.829 8.12101 487.386 7.74695 487.952 7.38639L486.878 5.69949C486.284 6.07756 485.7 6.46974 485.127 6.87554L486.282 8.50809ZM489.675 6.34759C490.256 6.0159 490.847 5.69803 491.446 5.39446L490.541 3.61057C489.913 3.92898 489.294 4.26235 488.684 4.6102L489.675 6.34759ZM493.261 4.52956C493.872 4.25677 494.491 3.99853 495.117 3.75528L494.393 1.89102C493.736 2.14623 493.087 2.41716 492.446 2.70333L493.261 4.52956ZM497.009 3.07374C497.643 2.8628 498.284 2.66701 498.932 2.48681L498.396 0.560023C497.716 0.749122 497.043 0.954575 496.378 1.17592L497.009 3.07374ZM500.882 1.99602C501.533 1.84911 502.191 1.71782 502.853 1.60257L502.511 -0.367864C501.815 -0.246935 501.125 -0.109166 500.442 0.0449992L500.882 1.99602ZM504.842 1.30727C505.505 1.22562 506.172 1.1599 506.843 1.11053L506.697 -0.88409C505.992 -0.832301 505.292 -0.763364 504.598 -0.677698L504.842 1.30727ZM508.852 1.0123C509.187 1.00411 509.524 0.999994 509.861 0.999994V-1.00001C509.507 -1.00001 509.155 -0.99569 508.803 -0.987107L508.852 1.0123ZM509.861 0.999994H510.845V-1.00001H509.861V0.999994ZM512.812 0.999994H514.779V-1.00001H512.812V0.999994ZM516.747 0.999994H518.714V-1.00001H516.747V0.999994ZM520.681 0.999994H522.649V-1.00001H520.681V0.999994ZM524.616 0.999994H526.584V-1.00001H524.616V0.999994ZM528.551 0.999994H530.518V-1.00001H528.551V0.999994ZM532.486 0.999994H534.453V-1.00001H532.486V0.999994ZM536.42 0.999994H538.388V-1.00001H536.42V0.999994ZM540.355 0.999994H542.323V-1.00001H540.355V0.999994ZM544.29 0.999994H546.257V-1.00001H544.29V0.999994ZM548.225 0.999994H550.192V-1.00001H548.225V0.999994ZM552.159 0.999994H554.127V-1.00001H552.159V0.999994ZM556.094 0.999994H558.061V-1.00001H556.094V0.999994ZM560.029 0.999994H561.996V-1.00001H560.029V0.999994ZM563.964 0.999994H565.931V-1.00001H563.964V0.999994ZM567.898 0.999994H569.866V-1.00001H567.898V0.999994ZM571.833 0.999994H573.8V-1.00001H571.833V0.999994ZM575.768 0.999994H577.735V-1.00001H575.768V0.999994ZM579.703 0.999994H581.67V-1.00001H579.703V0.999994ZM583.637 0.999994H584.621V-1.00001H583.637V0.999994ZM583.621 -5.72205e-06V1.09799H585.621V-5.72205e-06H583.621ZM583.621 3.29399V5.49H585.621V3.29399H583.621ZM583.621 7.686V9.882H585.621V7.686H583.621ZM583.621 12.078V14.274H585.621V12.078H583.621ZM583.621 16.47V18.666H585.621V16.47H583.621ZM583.621 20.862V21.96H585.621V20.862H583.621ZM584.621 20.96H583.637V22.96H584.621V20.96ZM581.67 20.96H579.703V22.96H581.67V20.96ZM577.735 20.96H575.768V22.96H577.735V20.96ZM573.8 20.96H571.833V22.96H573.8V20.96ZM569.866 20.96H567.898V22.96H569.866V20.96ZM565.931 20.96H563.964V22.96H565.931V20.96ZM561.996 20.96H560.029V22.96H561.996V20.96ZM558.061 20.96H556.094V22.96H558.061V20.96ZM554.127 20.96H552.159V22.96H554.127V20.96ZM550.192 20.96H548.225V22.96H550.192V20.96ZM546.257 20.96H544.29V22.96H546.257V20.96ZM542.323 20.96H540.355V22.96H542.323V20.96ZM538.388 20.96H536.42V22.96H538.388V20.96ZM534.453 20.96H532.486V22.96H534.453V20.96ZM530.518 20.96H528.551V22.96H530.518V20.96ZM526.584 20.96H524.616V22.96H526.584V20.96ZM522.649 20.96H520.681V22.96H522.649V20.96ZM518.714 20.96H516.747V22.96H518.714V20.96ZM514.779 20.96H512.812V22.96H514.779V20.96ZM510.845 20.96H509.861V22.96H510.845V20.96ZM584.621 62.16H586.621V60.16H584.621V62.16ZM584.621 84V86H586.621V84H584.621ZM584.621 -5.72205e-06H586.621V-2.00001H584.621V-5.72205e-06ZM584.621 21.96V23.96H586.621V21.96H584.621ZM509.861 19.96C509.498 19.96 509.137 19.9687 508.779 19.9858L508.97 23.9813C509.265 23.9671 509.562 23.96 509.861 23.96V19.96ZM506.622 20.1938C505.901 20.2988 505.191 20.4384 504.494 20.6108L505.455 24.4937C506.025 24.3525 506.607 24.2381 507.199 24.152L506.622 20.1938ZM502.417 21.2344C501.731 21.4774 501.062 21.7528 500.41 22.0589L502.111 25.6796C502.644 25.4289 503.192 25.2033 503.753 25.0044L502.417 21.2344ZM498.495 23.0759C497.872 23.4467 497.269 23.847 496.688 24.2748L499.061 27.4956C499.537 27.1448 500.031 26.8166 500.541 26.5127L498.495 23.0759ZM495.008 25.6439C494.47 26.1275 493.956 26.6369 493.468 27.1702L496.42 29.87C496.82 29.4327 497.241 29.0149 497.682 28.6183L495.008 25.6439ZM492.085 28.8398C491.652 29.4177 491.246 30.0176 490.871 30.6374L494.292 32.7104C494.599 32.2031 494.931 31.7119 495.286 31.2384L492.085 28.8398ZM489.839 32.5466C489.528 33.1973 489.248 33.8656 489.001 34.5495L492.763 35.9086C492.965 35.35 493.193 34.804 493.448 34.2721L489.839 32.5466ZM488.366 36.6264C488.19 37.3239 488.047 38.0344 487.94 38.7559L491.896 39.3439C491.984 38.7543 492.1 38.174 492.244 37.6045L488.366 36.6264ZM487.727 40.9158C487.71 41.2752 487.701 41.6367 487.701 42H491.701C491.701 41.7018 491.708 41.4054 491.723 41.111L487.727 40.9158ZM487.701 42C487.701 42.364 487.71 42.726 487.727 43.0859L491.722 42.8941C491.708 42.598 491.701 42.3 491.701 42H487.701ZM487.936 45.2498C488.042 45.9733 488.183 46.6856 488.357 47.3848L492.239 46.4202C492.096 45.8478 491.981 45.2642 491.894 44.671L487.936 45.2498ZM488.985 49.469C489.23 50.1561 489.508 50.8273 489.817 51.4809L493.433 49.7725C493.181 49.2376 492.953 48.6882 492.753 48.126L488.985 49.469ZM490.842 53.4007C491.216 54.0245 491.62 54.6282 492.051 55.2098L495.264 52.8265C494.91 52.3499 494.579 51.8553 494.273 51.3444L490.842 53.4007ZM493.431 56.8913C493.919 57.4288 494.432 57.9422 494.97 58.4295L497.656 55.4659C497.215 55.0664 496.795 54.6455 496.395 54.2048L493.431 56.8913ZM496.651 59.8098C497.233 60.2413 497.836 60.6449 498.46 61.0188L500.517 57.5878C500.006 57.2816 499.511 56.9509 499.034 56.5973L496.651 59.8098ZM500.38 62.0443C501.034 62.353 501.705 62.6308 502.392 62.8757L503.735 59.1079C503.173 58.9075 502.623 58.6802 502.088 58.4275L500.38 62.0443ZM504.476 63.5043C505.175 63.6781 505.888 63.8187 506.611 63.9245L507.19 59.9667C506.597 59.8799 506.013 59.7647 505.441 59.6224L504.476 63.5043ZM508.775 64.134C509.135 64.1513 509.497 64.16 509.861 64.16V60.16C509.561 60.16 509.263 60.1528 508.967 60.1386L508.775 64.134ZM509.861 64.16H510.845V60.16H509.861V64.16ZM512.812 64.16H514.779V60.16H512.812V64.16ZM516.747 64.16H518.714V60.16H516.747V64.16ZM520.681 64.16H522.649V60.16H520.681V64.16ZM524.616 64.16H526.584V60.16H524.616V64.16ZM528.551 64.16H530.518V60.16H528.551V64.16ZM532.486 64.16H534.453V60.16H532.486V64.16ZM536.42 64.16H538.388V60.16H536.42V64.16ZM540.355 64.16H542.323V60.16H540.355V64.16ZM544.29 64.16H546.257V60.16H544.29V64.16ZM548.225 64.16H550.192V60.16H548.225V64.16ZM552.159 64.16H554.127V60.16H552.159V64.16ZM556.094 64.16H558.061V60.16H556.094V64.16ZM560.029 64.16H561.996V60.16H560.029V64.16ZM563.964 64.16H565.931V60.16H563.964V64.16ZM567.898 64.16H569.866V60.16H567.898V64.16ZM571.833 64.16H573.8V60.16H571.833V64.16ZM575.768 64.16H577.735V60.16H575.768V64.16ZM579.703 64.16H581.67V60.16H579.703V64.16ZM583.637 64.16H584.621V60.16H583.637V64.16ZM582.621 62.16V63.252H586.621V62.16H582.621ZM582.621 65.436V67.62H586.621V65.436H582.621ZM582.621 69.804V71.988H586.621V69.804H582.621ZM582.621 74.172V76.356H586.621V74.172H582.621ZM582.621 78.54V80.724H586.621V78.54H582.621ZM582.621 82.908V84H586.621V82.908H582.621ZM584.621 82H583.637V86H584.621V82ZM581.67 82H579.703V86H581.67V82ZM577.735 82H575.768V86H577.735V82ZM573.8 82H571.833V86H573.8V82ZM569.866 82H567.898V86H569.866V82ZM565.931 82H563.964V86H565.931V82ZM561.996 82H560.029V86H561.996V82ZM558.061 82H556.094V86H558.061V82ZM554.127 82H552.159V86H554.127V82ZM550.192 82H548.225V86H550.192V82ZM546.257 82H544.29V86H546.257V82ZM542.323 82H540.355V86H542.323V82ZM538.388 82H536.42V86H538.388V82ZM534.453 82H532.486V86H534.453V82ZM530.518 82H528.551V86H530.518V82ZM526.584 82H524.616V86H526.584V82ZM522.649 82H520.681V86H522.649V82ZM518.714 82H516.747V86H518.714V82ZM514.779 82H512.812V86H514.779V82ZM510.845 82H509.861V86H510.845V82ZM509.861 82C509.532 82 509.203 81.996 508.876 81.9881L508.779 85.9869C509.139 85.9956 509.499 86 509.861 86V82ZM506.915 81.8927C506.259 81.8448 505.608 81.781 504.961 81.7017L504.474 85.672C505.186 85.7592 505.902 85.8293 506.623 85.8821L506.915 81.8927ZM503.02 81.415C502.373 81.303 501.731 81.1755 501.095 81.0328L500.219 84.9358C500.92 85.0929 501.626 85.2332 502.338 85.3564L503.02 81.415ZM499.192 80.556C498.56 80.3809 497.934 80.1906 497.315 79.9855L496.057 83.7828C496.739 84.0085 497.428 84.218 498.124 84.4108L499.192 80.556ZM495.468 79.3228C494.857 79.0863 494.252 78.835 493.656 78.5696L492.03 82.2242C492.686 82.5163 493.351 82.7928 494.024 83.0532L495.468 79.3228ZM491.883 77.7279C491.298 77.4324 490.721 77.1229 490.153 76.7999L488.176 80.277C488.801 80.6324 489.435 80.9728 490.079 81.298L491.883 77.7279ZM488.471 75.788C487.918 75.4366 487.374 75.0721 486.84 74.6948L484.533 77.9621C485.12 78.3769 485.718 78.7777 486.326 79.1641L488.471 75.788ZM485.264 73.5232C484.749 73.1198 484.243 72.7039 483.747 72.2762L481.133 75.3033C481.677 75.7735 482.233 76.2306 482.8 76.6741L485.264 73.5232ZM482.293 70.9567C481.819 70.5051 481.356 70.0421 480.904 69.568L478.008 72.3268C478.504 72.8479 479.013 73.3568 479.534 73.8531L482.293 70.9567ZM479.585 68.1135C479.157 67.6182 478.741 67.1124 478.338 66.5965L475.187 69.0607C475.63 69.6278 476.087 70.1838 476.558 70.7281L479.585 68.1135ZM477.166 65.0208C476.789 64.4866 476.424 63.9428 476.073 63.3898L472.697 65.535C473.083 66.1431 473.484 66.741 473.899 67.3283L477.166 65.0208ZM475.061 61.7076C474.738 61.1395 474.429 60.5628 474.133 59.978L470.563 61.782C470.888 62.4255 471.229 63.0599 471.584 63.6848L475.061 61.7076ZM473.291 58.2051C473.026 57.6085 472.775 57.0044 472.538 56.393L468.808 57.8366C469.068 58.5096 469.345 59.1746 469.637 59.8311L473.291 58.2051ZM471.875 54.5462C471.67 53.9269 471.48 53.301 471.305 52.6689L467.45 53.7368C467.643 54.4327 467.852 55.1218 468.078 55.8035L471.875 54.5462ZM470.828 50.7657C470.685 50.1298 470.558 49.4881 470.446 48.8411L466.505 49.523C466.628 50.2351 466.768 50.9414 466.925 51.6415L470.828 50.7657ZM470.159 46.8998C470.08 46.2533 470.016 45.602 469.968 44.9463L465.979 45.2379C466.032 45.959 466.102 46.6754 466.189 47.3867L470.159 46.8998ZM469.873 42.9851C469.865 42.6577 469.861 42.3293 469.861 42H465.861C465.861 42.3617 465.865 42.7224 465.874 43.0821L469.873 42.9851ZM469.861 42C469.861 41.6711 469.865 41.343 469.873 41.0159L465.874 40.918C465.865 41.2777 465.861 41.6384 465.861 42H469.861ZM469.969 39.0564C470.017 38.4014 470.082 37.7506 470.162 37.1045L466.192 36.6138C466.104 37.3251 466.033 38.0414 465.98 38.7622L469.969 39.0564ZM470.45 35.1647C470.563 34.5185 470.691 33.8774 470.835 33.2418L466.933 32.3606C466.775 33.0605 466.634 33.7665 466.51 34.4781L470.45 35.1647ZM471.314 31.3403C471.49 30.7089 471.681 30.0835 471.887 29.4647L468.092 28.2016C467.865 28.8829 467.655 29.5714 467.461 30.2667L471.314 31.3403ZM472.552 27.6195C472.79 27.0089 473.042 26.4053 473.308 25.8092L469.656 24.1781C469.363 24.834 469.085 25.4983 468.824 26.1704L472.552 27.6195ZM474.152 24.0378C474.448 23.4536 474.758 22.8774 475.082 22.3097L471.607 20.3288C471.251 20.953 470.91 21.5867 470.584 22.2293L474.152 24.0378ZM476.095 20.6288C476.447 20.0764 476.811 19.533 477.189 18.999L473.923 16.6893C473.508 17.2761 473.107 17.8734 472.721 18.4807L476.095 20.6288ZM478.361 17.4241C478.765 16.9085 479.181 16.4029 479.609 15.9078L476.582 13.2926C476.112 13.8366 475.655 14.3921 475.211 14.9587L478.361 17.4241ZM480.928 14.4535C481.379 13.9795 481.842 13.5164 482.316 13.0647L479.556 10.1693C479.036 10.6655 478.527 11.1742 478.031 11.695L480.928 14.4535ZM483.77 11.7449C484.265 11.3169 484.77 10.9008 485.286 10.497L482.819 7.34806C482.253 7.79177 481.697 8.24898 481.153 8.71919L483.77 11.7449ZM486.86 9.32436C487.394 8.94664 487.937 8.58165 488.489 8.22984L486.341 4.85604C485.733 5.24286 485.136 5.6441 484.549 6.05927L486.86 9.32436ZM490.17 7.21629C490.737 6.89267 491.314 6.58256 491.898 6.28641L490.089 2.71862C489.446 3.04445 488.813 3.38558 488.189 3.7415L490.17 7.21629ZM493.669 5.44268C494.265 5.17658 494.869 4.92467 495.479 4.68741L494.031 0.958891C493.358 1.22009 492.694 1.49736 492.038 1.79022L493.669 5.44268ZM497.324 4.02265C497.943 3.81691 498.568 3.62595 499.2 3.4502L498.128 -0.403368C497.432 -0.209821 496.744 0.000462502 496.062 0.227007L497.324 4.02265ZM501.102 2.97153C501.737 2.82824 502.378 2.70019 503.025 2.58779L502.339 -1.35308C501.628 -1.22931 500.922 -1.0883 500.222 -0.93051L501.102 2.97153ZM504.965 2.29976C505.611 2.22011 506.261 2.15601 506.917 2.10784L506.623 -1.8814C505.903 -1.8284 505.186 -1.75786 504.475 -1.67018L504.965 2.29976ZM508.877 2.012C509.204 2.00401 509.532 1.99999 509.861 1.99999V-2.00001C509.499 -2.00001 509.139 -1.99559 508.779 -1.98681L508.877 2.012ZM509.861 1.99999H510.845V-2.00001H509.861V1.99999ZM512.812 1.99999H514.779V-2.00001H512.812V1.99999ZM516.747 1.99999H518.714V-2.00001H516.747V1.99999ZM520.681 1.99999H522.649V-2.00001H520.681V1.99999ZM524.616 1.99999H526.584V-2.00001H524.616V1.99999ZM528.551 1.99999H530.518V-2.00001H528.551V1.99999ZM532.486 1.99999H534.453V-2.00001H532.486V1.99999ZM536.42 1.99999H538.388V-2.00001H536.42V1.99999ZM540.355 1.99999H542.323V-2.00001H540.355V1.99999ZM544.29 1.99999H546.257V-2.00001H544.29V1.99999ZM548.225 1.99999H550.192V-2.00001H548.225V1.99999ZM552.159 1.99999H554.127V-2.00001H552.159V1.99999ZM556.094 1.99999H558.061V-2.00001H556.094V1.99999ZM560.029 1.99999H561.996V-2.00001H560.029V1.99999ZM563.964 1.99999H565.931V-2.00001H563.964V1.99999ZM567.898 1.99999H569.866V-2.00001H567.898V1.99999ZM571.833 1.99999H573.8V-2.00001H571.833V1.99999ZM575.768 1.99999H577.735V-2.00001H575.768V1.99999ZM579.703 1.99999H581.67V-2.00001H579.703V1.99999ZM583.637 1.99999H584.621V-2.00001H583.637V1.99999ZM582.621 -5.72205e-06V1.09799H586.621V-5.72205e-06H582.621ZM582.621 3.29399V5.49H586.621V3.29399H582.621ZM582.621 7.686V9.882H586.621V7.686H582.621ZM582.621 12.078V14.274H586.621V12.078H582.621ZM582.621 16.47V18.666H586.621V16.47H582.621ZM582.621 20.862V21.96H586.621V20.862H582.621ZM584.621 19.96H583.637V23.96H584.621V19.96ZM581.67 19.96H579.703V23.96H581.67V19.96ZM577.735 19.96H575.768V23.96H577.735V19.96ZM573.8 19.96H571.833V23.96H573.8V19.96ZM569.866 19.96H567.898V23.96H569.866V19.96ZM565.931 19.96H563.964V23.96H565.931V19.96ZM561.996 19.96H560.029V23.96H561.996V19.96ZM558.061 19.96H556.094V23.96H558.061V19.96ZM554.127 19.96H552.159V23.96H554.127V19.96ZM550.192 19.96H548.225V23.96H550.192V19.96ZM546.257 19.96H544.29V23.96H546.257V19.96ZM542.323 19.96H540.355V23.96H542.323V19.96ZM538.388 19.96H536.42V23.96H538.388V19.96ZM534.453 19.96H532.486V23.96H534.453V19.96ZM530.518 19.96H528.551V23.96H530.518V19.96ZM526.584 19.96H524.616V23.96H526.584V19.96ZM522.649 19.96H520.681V23.96H522.649V19.96ZM518.714 19.96H516.747V23.96H518.714V19.96ZM514.779 19.96H512.812V23.96H514.779V19.96ZM510.845 19.96H509.861V23.96H510.845V19.96Z" fill="white" mask="url(#path-1-outside-1_14_179)"/>
</svg>
