<svg width="215" height="177" viewBox="0 0 215 177" fill="none" xmlns="http://www.w3.org/2000/svg">
<path d="M9.98868 27.6037C4.04256 35.2079 0.486328 44.7617 0.486328 55.1388C0.486328 65.5159 4.04256 75.0697 9.98868 82.6739" fill="black"/>
<path d="M201.545 82.6739C207.491 75.0697 211.042 65.5159 211.042 55.1388C211.042 44.7617 207.485 35.2079 201.545 27.6037" fill="black"/>
<path d="M61.0053 23.4586V38.1924C64.6302 35.3851 69.1698 33.7099 74.0982 33.7099H140.335C152.152 33.7099 161.763 43.3209 161.763 55.1388C161.763 58.9123 160.774 62.4628 159.053 65.5445H175.062L180.677 74.6123C183.53 68.7177 185.136 62.1083 185.136 55.1331C185.136 30.4281 165.034 10.3257 140.329 10.3257H74.0925C66.5112 10.3257 59.3702 12.2239 53.1039 15.5571" fill="black"/>
<path d="M152.838 87.2306V72.5254C149.316 75.064 145 76.5676 140.329 76.5676H74.0923C62.2744 76.5676 52.6634 66.9567 52.6634 55.1388C52.6634 51.5311 53.561 48.1292 55.1448 45.1447H38.7758L33.3843 36.4371C30.7543 42.1316 29.2906 48.4665 29.2906 55.1388C29.2906 79.8437 49.393 99.9462 74.098 99.9462H140.334C147.653 99.9462 154.565 98.1795 160.671 95.0578" fill="black"/>
<path d="M153.027 87.3106V110.689C177.395 110.295 197.102 90.3637 197.102 65.8989C197.102 65.7788 197.097 65.6645 197.097 65.5444H173.718C173.718 65.6645 173.73 65.7788 173.73 65.8989C173.73 77.4709 164.513 86.9218 153.033 87.3106" fill="black"/>
<path d="M60.8163 23.3785V0C36.4487 0.394502 16.7408 20.3311 16.7408 44.7902C16.7408 44.9103 16.7465 45.0247 16.7522 45.1447H40.1307C40.1307 45.0304 40.125 44.9103 40.125 44.7902C40.125 33.2182 49.3415 23.7673 60.8221 23.3785" fill="black"/>
<path d="M0 139.43H48.1296V149.077H28.8356V176.331H19.2413V149.077H0V139.43Z" fill="black"/>
<path d="M93.8161 139.43C103.99 139.43 112.267 147.759 112.267 157.881C112.267 168.055 103.99 176.331 93.8161 176.331H66.562C56.3879 176.331 48.1115 168.055 48.1115 157.881C48.1115 147.759 56.3879 139.43 66.562 139.43H93.8161ZM93.8161 166.737C98.666 166.737 102.62 162.783 102.62 157.881C102.62 153.031 98.666 149.077 93.8161 149.077H66.562C61.6594 149.077 57.7057 153.031 57.7057 157.881C57.7057 162.783 61.6594 166.737 66.562 166.737H93.8161Z" fill="black"/>
<path d="M150.865 139.43L163.675 176.331H153.238L143.749 149.077H129.041L119.552 176.331H109.167L121.977 139.43H150.865Z" fill="black"/>
<path d="M215 139.43L208.621 157.881L215 176.331H204.615L199.607 161.94H173.302V176.331H163.707V139.43H173.302V152.293H200.134L204.615 139.43H215Z" fill="black"/>
</svg>
