<svg width="231" height="52" viewBox="0 0 231 52" fill="none" xmlns="http://www.w3.org/2000/svg">
<path d="M4.40579 12.7985C1.64886 16.3242 0 20.7539 0 25.5652C0 30.3766 1.64886 34.8062 4.40579 38.3319" fill="black"/>
<path d="M93.2214 38.3319C95.9783 34.8062 97.6245 30.3766 97.6245 25.5652C97.6245 20.7539 95.9756 16.3242 93.2214 12.7985" fill="black"/>
<path d="M28.0598 10.8766V17.708C29.7404 16.4064 31.8453 15.6297 34.1303 15.6297H64.8409C70.3203 15.6297 74.7765 20.0858 74.7765 25.5652C74.7765 27.3148 74.3179 28.961 73.52 30.3899H80.9425L83.5456 34.5942C84.8684 31.8611 85.6133 28.7967 85.6133 25.5626C85.6133 14.1081 76.2928 4.78753 64.8383 4.78753H34.1277C30.6126 4.78753 27.3016 5.66763 24.3962 7.2131" fill="black"/>
<path d="M70.6383 40.4447V33.6266C69.0054 34.8036 67.004 35.5008 64.8382 35.5008H34.1276C28.6482 35.5008 24.192 31.0446 24.192 25.5652C24.192 23.8925 24.6082 22.3152 25.3425 20.9315H17.753L15.2532 16.8941C14.0338 19.5344 13.3552 22.4716 13.3552 25.5652C13.3552 37.0197 22.6757 46.3403 34.1302 46.3403H64.8408C68.234 46.3403 71.4389 45.5211 74.2701 44.0738" fill="black"/>
<path d="M70.7258 40.4818V51.3213C82.0239 51.1384 91.1615 41.8974 91.1615 30.5542C91.1615 30.4985 91.1589 30.4455 91.1589 30.3898H80.3194C80.3194 30.4455 80.3247 30.4985 80.3247 30.5542C80.3247 35.9196 76.0514 40.3015 70.7284 40.4818" fill="black"/>
<path d="M27.9721 10.8395V0C16.674 0.182912 7.53641 9.42658 7.53641 20.7671C7.53641 20.8228 7.53906 20.8758 7.54171 20.9315H18.3812C18.3812 20.8784 18.3786 20.8228 18.3786 20.7671C18.3786 15.4017 22.6518 11.0198 27.9748 10.8395" fill="black"/>
<path d="M117.828 14.6698H143.041V19.7233H132.934V34H127.908V19.7233H117.828V14.6698ZM166.973 14.6698C172.302 14.6698 176.638 19.0329 176.638 24.3349C176.638 29.6645 172.302 34 166.973 34H152.696C147.367 34 143.031 29.6645 143.031 24.3349C143.031 19.0329 147.367 14.6698 152.696 14.6698H166.973ZM166.973 28.9741C169.513 28.9741 171.585 26.9031 171.585 24.3349C171.585 21.7944 169.513 19.7233 166.973 19.7233H152.696C150.128 19.7233 148.057 21.7944 148.057 24.3349C148.057 26.9031 150.128 28.9741 152.696 28.9741H166.973ZM196.857 14.6698L203.568 34H198.1L193.129 19.7233H185.425L180.454 34H175.014L181.725 14.6698H196.857ZM230.454 14.6698L227.112 24.3349L230.454 34H225.014L222.39 26.4612H208.61V34H203.585V14.6698H208.61V21.4078H222.666L225.014 14.6698H230.454Z" fill="black"/>
</svg>
