<svg width="358" height="77" viewBox="0 0 358 77" fill="none" xmlns="http://www.w3.org/2000/svg">
<path d="M2 45.0001C49.4568 45.0001 96.8831 45.643 144.222 41.4446C210.146 35.5979 282.517 29.8243 345.333 7.22233C348.033 6.25087 350.678 5.10515 353.222 3.77789C357.254 1.67438 355.631 1.3379 352.111 1.77789C340.795 3.19237 329.638 8.00763 318.889 11.4446C274.474 25.6452 228.994 35.9753 184 48.1112C165.982 52.9711 140.078 56.7259 124 67.4446C121.381 69.1908 130.186 68.8312 133.333 68.889C158.505 69.3509 183.716 69.0001 208.889 69.0001C250.858 69.0001 292.925 68.1691 334.889 69.0001C341.585 69.1327 346.39 71.7946 352 75.0001" stroke="#FF66AC" stroke-width="3" stroke-linecap="round"/>
</svg>
