<svg width="247" height="140" viewBox="0 0 247 140" fill="none" xmlns="http://www.w3.org/2000/svg">
<rect width="247" height="140" fill="#554DFF"/>
<path d="M41.1685 46.6911C36.057 53.2175 33 61.4171 33 70.3234C33 79.2296 36.057 87.4293 41.1685 93.9556" fill="white"/>
<path d="M205.836 93.9556C210.948 87.4293 214 79.2296 214 70.3234C214 61.4171 210.943 53.2175 205.836 46.6911" fill="white"/>
<path d="M85.024 43.1336V55.779C88.1401 53.3696 92.0425 51.9319 96.2791 51.9319H153.218C163.377 51.9319 171.639 60.1806 171.639 70.3234C171.639 73.562 170.789 76.6093 169.309 79.2542H183.071L187.897 87.0367C190.35 81.9776 191.731 76.3051 191.731 70.3185C191.731 49.1152 174.45 31.8621 153.213 31.8621H96.2742C89.7571 31.8621 83.6184 33.4913 78.2317 36.352" fill="white"/>
<path d="M163.966 97.8665V85.2456C160.939 87.4244 157.228 88.7149 153.213 88.7149H96.274C86.1149 88.7149 77.853 80.4662 77.853 70.3234C77.853 67.227 78.6247 64.3073 79.9861 61.7459H65.9148L61.2801 54.2725C59.0193 59.1599 57.7611 64.5969 57.7611 70.3234C57.7611 91.5266 75.0417 108.78 96.2789 108.78H153.218C159.509 108.78 165.451 107.263 170.7 104.584" fill="white"/>
<path d="M164.129 97.9352V118C185.076 117.661 202.017 100.556 202.017 79.5583C202.017 79.4553 202.012 79.3572 202.012 79.2541H181.916C181.916 79.3572 181.925 79.4553 181.925 79.5583C181.925 89.4902 174.003 97.6015 164.134 97.9352" fill="white"/>
<path d="M84.8616 43.0648V23C63.9144 23.3386 46.9728 40.4494 46.9728 61.4416C46.9728 61.5447 46.9777 61.6428 46.9827 61.7459H67.0796C67.0796 61.6477 67.0746 61.5447 67.0746 61.4416C67.0746 51.5098 74.9974 43.3985 84.8665 43.0648" fill="white"/>
</svg>
