<svg width="146" height="146" viewBox="0 0 146 146" fill="none" xmlns="http://www.w3.org/2000/svg">
<path d="M24.3337 121.667C20.9878 121.667 18.1246 120.476 15.744 118.096C13.3634 115.715 12.171 112.85 12.167 109.5V36.4999C12.167 33.1541 13.3593 30.2909 15.744 27.9103C18.1287 25.5296 20.9919 24.3373 24.3337 24.3333H121.667C125.013 24.3333 127.878 25.5256 130.263 27.9103C132.647 30.2949 133.838 33.1581 133.834 36.4999V109.5C133.834 112.846 132.643 115.711 130.263 118.096C127.882 120.48 125.017 121.671 121.667 121.667H24.3337ZM73.0003 79.0833L121.667 48.6666V36.4999L73.0003 66.9166L24.3337 36.4999V48.6666L73.0003 79.0833Z" fill="black"/>
</svg>
