<svg width="146" height="146" viewBox="0 0 146 146" fill="none" xmlns="http://www.w3.org/2000/svg">
<path d="M69.9587 121.667L99.5237 62.4759H79.0837V24.3334L48.667 83.5242H69.9587V121.667ZM73.0003 12.1667C89.7295 12.1667 104.025 18.2501 115.888 30.1126C127.75 41.9751 133.834 56.2709 133.834 73.0001C133.834 89.7292 127.75 104.025 115.888 115.888C104.025 127.75 89.7295 133.833 73.0003 133.833C56.2712 133.833 41.9753 127.75 30.1128 115.888C18.2503 104.025 12.167 89.7292 12.167 73.0001C12.167 56.2709 18.2503 41.9751 30.1128 30.1126C41.9753 18.2501 56.2712 12.1667 73.0003 12.1667Z" fill="black"/>
</svg>
