<svg width="146" height="146" viewBox="0 0 146 146" fill="none" xmlns="http://www.w3.org/2000/svg">
<path d="M40.2717 65.6392C49.0317 82.855 63.145 96.9075 80.3608 105.728L93.7442 92.345C95.3867 90.7025 97.82 90.155 99.9492 90.885C106.763 93.1358 114.123 94.3525 121.667 94.3525C125.013 94.3525 127.75 97.09 127.75 100.436V121.667C127.75 125.013 125.013 127.75 121.667 127.75C64.5442 127.75 18.25 81.4558 18.25 24.3333C18.25 20.9875 20.9875 18.25 24.3333 18.25H45.625C48.9708 18.25 51.7083 20.9875 51.7083 24.3333C51.7083 31.9375 52.925 39.2375 55.1758 46.0508C55.845 48.18 55.3583 50.5525 53.655 52.2558L40.2717 65.6392Z" fill="black"/>
</svg>
