<svg width="2353" height="486" viewBox="0 0 2353 486" fill="none" xmlns="http://www.w3.org/2000/svg">
<path d="M54 100.737C70.5507 92.4617 87.6255 86.9107 105.667 82.6259C164.605 68.6281 223.94 62.3506 284.222 57.8482C339.558 53.7152 395.031 47.0578 449 63.8482C502.334 80.4409 552.089 110.958 600.222 138.737C648.45 166.571 694.376 197.858 743.222 224.737C793.59 252.453 845.548 272.181 900.667 288.293C953.265 303.667 1008.25 308.731 1062.89 310.404C1114.42 311.981 1156.83 299.168 1204.44 280.737C1259.47 259.437 1313.12 241.627 1371.33 230.959C1436.67 218.984 1503.78 208.637 1570 203.182C1621.55 198.935 1668.82 199.762 1717.56 217.737C1751.69 230.327 1784.66 246.198 1817.78 261.182C1863.6 281.912 1907.32 305.855 1951 330.737C1998.7 357.912 2047.37 388.758 2100 405.404C2163.92 425.619 2233.67 427.824 2300 432.737" stroke="#E1FF76" stroke-width="106" stroke-linecap="round"/>
</svg>
